<svg width="122.739" height="128.284" xmlns="http://www.w3.org/2000/svg">

 <g>
  <title>background</title>
  <rect fill="none" id="canvas_background" height="130.284" width="124.739" y="-1" x="-1"/>
 </g>
 <g>
  <title>Layer 1</title>
  <g id="Group_42">
   <ellipse fill="#e6e6e6" ry="17.583" rx="76.325" cy="389.7" cx="509.41997" id="Ellipse_218"/>
   <path fill="#a0616a" d="m508.42,-59.863l0,23l12,30l19,-34l0,-26l-31,7z" id="Path_1092"/>
   <path fill="#a0616a" d="m454.919,118.637l-3,22s-7,24 3,24s10,-26 10,-26l2,-15l-12,-5z" id="Path_1093"/>
   <path fill="#a0616a" d="m575.919,115.637l-3,22s-7,24 3,24s10,-26 10,-26l2,-15l-12,-5z" id="Path_1094"/>
   <path fill="#2f2e41" d="m483.419,93.137l-4.706,1.3s-12.294,79.7 -13.294,121.7s-3,148 -3,148l32,0l21,-180l10,180l34,0s14,-236 5,-255s-81,-16 -81,-16z" id="Path_1095"/>
   <path fill="#2f2e41" d="m464.419,362.137l-9,14s-25,21 -3,20s31,-11 31,-11l0,3l12,-4l-2,-22l-29,0z" id="Path_1096"/>
   <path fill="#2f2e41" d="m556.419,362.137l9,14s25,21 3,20s-31,-11 -31,-11l0,3l-12,-4l2,-22l29,0z" id="Path_1097"/>
   <circle fill="#a0616a" r="22" cy="-76.364" cx="520.91998" id="Ellipse_219"/>
   <path fill="#575a89" d="m519.42,-21.863l-11,-22.524l-5,11.524l-2,99l46,-103l-8,-8.847l-20,23.847z" id="Path_1098"/>
   <path fill="#d1d1d1" d="m580.419,-16.863l-36.464,-23.83s-2.536,22.83 -25.536,20.83s-12.25,-19.342 -12.25,-19.342l-36.75,20.342l14,78l-6,45s54,-6 66,3a51.277,51.277 0 0 0 24,10l-2,-77l15,-57z" id="Path_1099"/>
   <path fill="#d1d1d1" d="m569.419,-12.863l6.918,-6.668l5.082,3.668s5,6 9,24s2,98 2,98l-22,-3l1,-33l-9,-44l7,-39z" id="Path_1100"/>
   <path fill="#d1d1d1" d="m476.419,-19.863l-3.778,-0.784l-3.222,1.784s-9,12 -9,23s-9,105 -9,105l20,9l14,-71l-9,-67z" id="Path_1101"/>
   <path fill="#575a89" d="m595.419,108.137s-20,-12 -27,-4s4,16 4,16s31,12 23,-12z" id="Path_1102"/>
   <path fill="#575a89" d="m473.419,114.137s-20,-12 -27,-4s4,16 4,16s31,12 23,-12z" id="Path_1103"/>
   <path fill="#2f2e41" d="m540.186,-92.494s5.754,-11 -6.905,-12c0,0 -11.508,-7 -20.715,1c0,0 -8.056,-2 -10.358,4c0,0 -1.151,-3 2.3,-5c0,0 -8.056,-2 -8.056,8c0,0 -3.453,10 0,19s4.6,10 4.6,10s-5.674,-18.869 8.137,-19.869s29.266,-9.631 30.417,1.369s3.453,14 3.453,14s10.362,-16 -2.873,-20.5z" id="Path_1104"/>
   <path fill="#3f3b56" d="m60.29,321.304l-0.137,0c-5.113,0 -10.289,-0.152 -15.382,-0.453l0.076,-1.286c5.069,0.3 10.219,0.451 15.307,0.451l0.137,0l-0.001,1.288zm15.524,-0.47l-0.077,-1.286c5.123,-0.307 10.3,-0.774 15.387,-1.388l0.155,1.279c-5.113,0.618 -10.316,1.087 -15.46,1.396l-0.005,-0.001zm-46.51,-1.362c-5.12,-0.612 -10.287,-1.388 -15.356,-2.307l0.23,-1.269c5.043,0.914 10.184,1.687 15.279,2.3l-0.153,1.276zm77.328,-2.358l-0.232,-1.269c5.046,-0.92 10.129,-2.009 15.107,-3.234l0.308,1.251c-5,1.231 -10.112,2.325 -15.184,3.251l0.001,0.001zm-107.872,-3.188c-5.007,-1.226 -10.042,-2.623 -14.964,-4.151l0.383,-1.231c4.9,1.521 9.907,2.91 14.889,4.131l-0.308,1.251zm138.015,-4.234l-0.384,-1.231c4.89,-1.524 9.8,-3.221 14.6,-5.045l0.458,1.206c-4.822,1.834 -9.76,3.541 -14.674,5.073l0,-0.003zm-167.691,-4.981c-4.822,-1.826 -9.657,-3.828 -14.371,-5.949l0.529,-1.176c4.69,2.111 9.5,4.1 14.3,5.919l-0.458,1.206zm196.688,-6.032l-0.53,-1.176c4.668,-2.1 9.334,-4.382 13.868,-6.767l0.6,1.14c-4.557,2.401 -9.246,4.69 -13.938,6.806l0,-0.003zm-225.038,-6.729c-4.572,-2.4 -9.126,-4.972 -13.537,-7.643l0.667,-1.1c4.389,2.657 8.92,5.216 13.469,7.606l-0.599,1.137zm252.485,-7.705l-0.667,-1.1c4.384,-2.656 8.745,-5.481 12.959,-8.395l0.733,1.06c-4.239,2.926 -8.625,5.765 -13.025,8.435zm-279.064,-8.38c-4.246,-2.934 -8.456,-6.035 -12.513,-9.214l0.8,-1.015c4.036,3.165 8.225,6.249 12.45,9.169l-0.737,1.06zm304.584,-9.266l-0.8,-1.015c4.046,-3.175 8.037,-6.5 11.863,-9.9l0.856,0.964c-3.846,3.41 -7.857,6.756 -11.923,9.947l0.004,0.004zm-329.03,-9.9c-3.861,-3.42 -7.667,-7 -11.312,-10.644l0.911,-0.911c3.627,3.624 7.414,7.188 11.255,10.591l-0.854,0.964zm352.258,-10.7l-0.911,-0.911c3.632,-3.632 7.2,-7.417 10.6,-11.251l0.964,0.856c-3.416,3.853 -7,7.657 -10.65,11.306l-0.003,0zm-374.22,-11.248c-3.424,-3.859 -6.772,-7.869 -9.951,-11.918l1.013,-0.8c3.164,4.028 6.5,8.018 9.9,11.858l-0.962,0.86zm394.821,-11.975l-1.015,-0.8c3.175,-4.047 6.261,-8.235 9.174,-12.445l1.06,0.733c-2.926,4.236 -6.028,8.445 -9.219,12.512zm-413.992,-12.424c-2.935,-4.24 -5.777,-8.62 -8.444,-13.018l1.1,-0.67c2.655,4.378 5.482,8.736 8.4,12.955l-1.056,0.733zm431.664,-13.126l-1.1,-0.667c2.662,-4.393 5.223,-8.923 7.612,-13.465l1.14,0.6c-2.403,4.562 -4.973,9.115 -7.652,13.532zm-447.751,-13.394c-2.4,-4.557 -4.691,-9.246 -6.809,-13.935l1.174,-0.531c2.108,4.666 4.387,9.331 6.775,13.864l-1.14,0.602zm462.219,-14.115l-1.176,-0.529c2.116,-4.7 4.11,-9.506 5.926,-14.3l1.206,0.458c-1.827,4.814 -3.831,9.649 -5.957,14.368l0.001,0.003zm-474.979,-14.136c-1.834,-4.82 -3.543,-9.757 -5.079,-14.675l1.23,-0.385c1.529,4.893 3.229,9.806 5.053,14.6l-1.204,0.46zm486.01,-14.94l-1.231,-0.383c1.524,-4.9 2.917,-9.907 4.139,-14.886l1.251,0.307c-1.229,5.004 -2.628,10.038 -4.159,14.961l0,0.001zm-495.265,-14.693c-1.234,-5 -2.33,-10.107 -3.259,-15.183l1.268,-0.232c0.925,5.05 2.016,10.132 3.243,15.105l-1.252,0.31zm502.668,-15.456l-1.269,-0.232c0.916,-5.043 1.692,-10.182 2.3,-15.276l1.279,0.154c-0.61,5.118 -1.389,10.288 -2.31,15.353l0,0.001zm-508.26,-15.078c-0.619,-5.112 -1.091,-10.314 -1.4,-15.464l1.286,-0.078c0.31,5.123 0.78,10.3 1.4,15.386l-1.286,0.156zm511.962,-15.742l-1.286,-0.076c0.3,-5.114 0.458,-10.309 0.458,-15.444l0,-0.545l1.289,0l0,0.545c0,5.16 -0.155,10.381 -0.461,15.52zm-512.555,-15.246l-1.289,0l0,-0.273c0,-5.071 0.149,-10.2 0.444,-15.246l1.286,0.076c-0.293,5.021 -0.442,10.125 -0.442,15.171l0.001,0.272zm511.235,-16.263c-0.316,-5.129 -0.792,-10.306 -1.412,-15.385l1.279,-0.156c0.624,5.105 1.1,10.307 1.42,15.462l-1.287,0.079zm-509.429,-14.57l-1.28,-0.152c0.61,-5.12 1.383,-10.287 2.3,-15.357l1.269,0.229c-0.913,5.045 -1.683,10.186 -2.289,15.28zm505.678,-16.087c-0.933,-5.057 -2.029,-10.139 -3.26,-15.1l1.251,-0.31c1.237,4.99 2.339,10.1 3.277,15.179l-1.268,0.231zm-500.178,-14.309l-1.252,-0.306c1.223,-5 2.617,-10.04 4.144,-14.966l1.231,0.381c-1.519,4.9 -2.906,9.911 -4.122,14.891l-0.001,0zm492.748,-15.671c-1.533,-4.894 -3.239,-9.805 -5.068,-14.6l1.2,-0.459c1.839,4.815 3.554,9.751 5.1,14.67l-1.232,0.389zm-483.593,-13.859l-1.206,-0.456c1.825,-4.824 3.824,-9.66 5.942,-14.375l1.176,0.529c-2.108,4.691 -4.097,9.503 -5.912,14.302zm472.59,-14.976c-2.112,-4.664 -4.4,-9.326 -6.791,-13.857l1.14,-0.6c2.406,4.553 4.7,9.239 6.824,13.927l-1.173,0.53zm-459.911,-13.237l-1.142,-0.6c2.392,-4.561 4.961,-9.117 7.636,-13.541l1.1,0.667c-2.657,4.403 -5.213,8.936 -7.594,13.474zm445.5,-14.045c-2.66,-4.372 -5.492,-8.728 -8.417,-12.945l1.06,-0.735c2.94,4.239 5.785,8.616 8.458,13.011l-1.101,0.669zm-429.51,-12.415l-1.061,-0.733c2.926,-4.239 6.024,-8.45 9.207,-12.517l1.015,0.794c-3.161,4.048 -6.247,8.238 -9.161,12.456zm411.91,-12.95c-3.176,-4.032 -6.512,-8.018 -9.915,-11.848l0.964,-0.856c3.42,3.847 6.772,7.853 9.963,11.907l-1.012,0.797zm-392.854,-11.382l-0.965,-0.855c3.416,-3.86 7,-7.668 10.637,-11.316l0.913,0.91c-3.625,3.631 -7.186,7.419 -10.585,11.261zm372.334,-11.7c-3.642,-3.628 -7.432,-7.188 -11.267,-10.579l0.853,-0.965c3.854,3.408 7.665,6.985 11.323,10.632l-0.909,0.912zm-350.511,-10.166l-0.856,-0.964c3.847,-3.418 7.855,-6.768 11.912,-9.958l0.8,1.013c-4.035,3.174 -8.027,6.508 -11.856,9.909zm327.361,-10.3c-4.039,-3.16 -8.231,-6.24 -12.461,-9.155l0.733,-1.061c4.25,2.929 8.463,6.025 12.521,9.2l-0.793,1.016zm-303.085,-8.788l-0.734,-1.06c4.236,-2.935 8.614,-5.779 13.016,-8.451l0.669,1.1c-4.379,2.659 -8.736,5.489 -12.951,8.41l0,0.001zm277.633,-8.755c-4.4,-2.656 -8.934,-5.209 -13.476,-7.59l0.6,-1.142c4.566,2.393 9.123,4.959 13.545,7.628l-0.669,1.104zm-251.253,-7.264l-0.6,-1.14c4.555,-2.4 9.242,-4.7 13.931,-6.817l0.531,1.174c-4.666,2.11 -9.329,4.392 -13.86,6.783l-0.002,0zm223.865,-7.084c-4.691,-2.1 -9.5,-4.091 -14.305,-5.9l0.456,-1.206c4.826,1.822 9.662,3.818 14.377,5.934l-0.528,1.172zm-195.76,-5.624l-0.459,-1.2c4.822,-1.837 9.759,-3.548 14.674,-5.086l0.385,1.23c-4.894,1.525 -9.806,3.228 -14.603,5.056l0.003,0zm166.811,-5.3c-4.9,-1.516 -9.912,-2.9 -14.893,-4.115l0.306,-1.252c5,1.22 10.041,2.612 14.968,4.136l-0.381,1.231zm-137.333,-3.92l-0.31,-1.251c5.006,-1.238 10.114,-2.337 15.181,-3.267l0.233,1.268c-5.041,0.925 -10.123,2.019 -15.1,3.251l-0.004,-0.001zm107.326,-3.4c-5.038,-0.909 -10.179,-1.677 -15.281,-2.281l0.151,-1.28c5.128,0.607 10.295,1.378 15.359,2.292l-0.229,1.269zm-76.949,-2.183l-0.156,-1.28c5.109,-0.622 10.311,-1.1 15.463,-1.412l0.078,1.286c-5.126,0.313 -10.3,0.785 -15.385,1.4l0,0.006zm46.275,-1.452c-4.978,-0.288 -10.036,-0.434 -15.036,-0.434l-0.41,0l0,-1.289l0.41,0c5.024,0 10.109,0.147 15.11,0.437l-0.074,1.286z" id="Path_1105"/>
   <rect x="166.79602" y="227.255" fill="#a12020" height="114.61" width="152.813" id="Rectangle_316"/>
   <rect x="185.89697" y="257.81799" fill="#fff" height="7.641" width="114.61" id="Rectangle_317"/>
   <rect x="185.89697" y="280.73999" fill="#fff" height="7.641" width="114.61" id="Rectangle_318"/>
   <rect x="185.89697" y="303.66199" fill="#fff" height="7.641" width="114.61" id="Rectangle_319"/>
   <rect x="-200" y="-203" fill="#e6e6e6" height="80.054" width="106.739" id="Rectangle_320"/>
   <rect x="-186.658" y="-181.65199" fill="#fff" height="5.337" width="80.054" id="Rectangle_321"/>
   <rect x="-186.658" y="-165.642" fill="#fff" height="5.337" width="80.054" id="Rectangle_322"/>
   <rect x="-186.658" y="-149.631" fill="#fff" height="5.337" width="80.054" id="Rectangle_323"/>
   <rect x="-154.636" y="-161.63901" fill="#a12020" height="80.054" width="106.739" id="Rectangle_324"/>
   <rect x="-141.29401" y="-140.291" fill="#fff" height="5.337" width="80.054" id="Rectangle_325"/>
   <rect x="-141.29401" y="-124.28" fill="#fff" height="5.337" width="80.054" id="Rectangle_326"/>
   <rect x="-141.29401" y="-108.27" fill="#fff" height="5.337" width="80.054" id="Rectangle_327"/>
   <path fill="#e6e6e6" d="m206,173l-291,0l0,-218l291,0l0,218zm-288,-215l0,212l285,0l0,-212l-285,0z" id="Subtraction_1"/>
   <g id="Group_41">
    <ellipse fill="#a12020" ry="55.409" rx="55.409" cy="64.40899" cx="60.40901" id="Ellipse_220"/>
    <path fill="#fff" d="m83.418,59.756l-18.839,0l0,-18.839a4.433,4.433 0 0 0 -4.433,-4.433l0,0a4.433,4.433 0 0 0 -4.433,4.433l0,18.839l-18.839,0a4.433,4.433 0 0 0 -4.433,4.433l0,0a4.433,4.433 0 0 0 4.433,4.433l18.839,0l0,18.839a4.433,4.433 0 0 0 4.433,4.433l0,0a4.433,4.433 0 0 0 4.433,-4.433l0,-18.839l18.839,0a4.433,4.433 0 0 0 4.433,-4.433l0,0a4.433,4.433 0 0 0 -4.433,-4.433z" id="Path_1106"/>
   </g>
   <rect x="-208" y="208" fill="#e6e6e6" height="80.054" width="106.739" id="Rectangle_341"/>
   <rect x="-194.658" y="229.34802" fill="#fff" height="5.337" width="80.054" id="Rectangle_342"/>
   <rect x="-194.658" y="245.35797" fill="#fff" height="5.337" width="80.054" id="Rectangle_343"/>
   <rect x="-194.658" y="261.36902" fill="#fff" height="5.337" width="80.054" id="Rectangle_344"/>
  </g>
 </g>
</svg>