<svg width="825" height="200" xmlns="http://www.w3.org/2000/svg">
 <title>add_file</title>

 <g>
  <title>background</title>
  <rect fill="none" id="canvas_background" height="202" width="827" y="-1" x="-1"/>
 </g>
 <g>
  <title>Layer 1</title>
  <rect id="svg_1" fill="#3f3d56" height="2" width="457.54639" y="721" x="618.01845"/>
  <circle id="svg_16" fill="#a12020" r="81" cy="110.52873" cx="695.96025"/>
  <polygon id="svg_17" fill="#fff" points="746.960262298584,102.52900695800781 703.960262298584,102.52900695800781 703.960262298584,59.52900695800781 687.960262298584,59.52900695800781 687.960262298584,102.52900695800781 644.960262298584,102.52900695800781 644.960262298584,118.52900695800781 687.960262298584,118.52900695800781 687.960262298584,161.5290069580078 703.960262298584,161.5290069580078 703.960262298584,118.52900695800781 746.960262298584,118.52900695800781 746.960262298584,102.52900695800781 "/>
  <rect id="svg_18" fill="#f2f2f2" height="128.33333" width="110.15278" y="58.02371" x="83.60848"/>
  <path id="svg_19" fill="#3f3d56" d="m236.53904,187.42649l-154,0l0,-154l154,0l0,154zm-151.86111,-2.13889l149.72222,0l0,-149.72222l-149.72222,0l0,149.72222z"/>
  <rect id="svg_20" fill="#3f3d56" height="2.13889" width="94.11111" y="78.34315" x="114.62237"/>
  <rect id="svg_21" fill="#3f3d56" height="2.13889" width="94.11111" y="101.87093" x="114.62237"/>
  <rect id="svg_22" fill="#3f3d56" height="2.13889" width="94.11111" y="125.39871" x="114.62237"/>
  <rect id="svg_23" fill="#f2f2f2" height="110.16541" width="222" y="80.16783" x="363.45806"/>
  <path id="svg_24" fill="#3f3d56" d="m630.45806,191.33324l-268,0l0,-134l268,0l0,134zm-266,-2l264,0l0,-130l-264,0l0,130z"/>
  <rect id="svg_25" fill="#3f3d56" height="2" width="143.93848" y="113.25023" x="402.48882"/>
  <rect id="svg_26" fill="#3f3d56" height="2" width="143.93848" y="134.25023" x="402.48882"/>
  <rect id="svg_27" fill="#3f3d56" height="2" width="143.93848" y="155.25023" x="402.48882"/>
  <rect id="svg_28" fill="#f2f2f2" height="101" width="95" y="87.52874" x="243.29478"/>
  <path id="svg_29" fill="#3f3d56" d="m362.29478,189.52874l-120,0l0,-120l120,0l0,120zm-118,-2l116,0l0,-116l-116,0l0,116z"/>
  <rect id="svg_30" fill="#3f3d56" height="2" width="66" y="124.02874" x="257.79478"/>
  <rect id="svg_31" fill="#3f3d56" height="2" width="66" y="137.02874" x="257.79478"/>
  <rect id="svg_32" fill="#3f3d56" height="2" width="66" y="150.02874" x="257.79478"/>
  <rect id="svg_33" fill="#3f3d56" height="2" width="457.54639" y="186.66657" x="306.35146"/>
  <rect id="svg_34" fill="#3f3d56" height="2" width="251" y="187.52874" x="176.79478"/>
  <rect x="11.99997" id="svg_35" fill="#3f3d56" height="2" width="295.07814" y="186.19572"/>
 </g>
</svg>