<svg width="856" height="775" xmlns="http://www.w3.org/2000/svg" xmlns:xlink="http://www.w3.org/1999/xlink">
 <defs>
  <linearGradient y2="0" x2="0.50001" y1="1" x1="0.50001" id="b041aca9-d3e5-471f-a45f-1719f37693f2">
   <stop stop-opacity="0.25" stop-color="gray" offset="0"/>
   <stop stop-opacity="0.12" stop-color="gray" offset="0.54"/>
   <stop stop-opacity="0.1" stop-color="gray" offset="1"/>
  </linearGradient>
  <linearGradient xlink:href="#b041aca9-d3e5-471f-a45f-1719f37693f2" y2="86.44" x2="778.25" y1="304.36" x1="778.25" id="0b6d47c4-b656-4227-9455-99964de86042"/>
 </defs>
 <title>home run</title>
 <g>
  <title>background</title>
  <rect fill="none" id="canvas_background" height="378.56" width="502" y="-1" x="-1"/>
 </g>
 <g>
  <title>Layer 1</title>
  <path id="svg_2" fill="#535461" d="m591.66,255.12l-58.34,61.85l-130.26,-92.77l9.5,-28.2l111.26,52.75l47.66,-52.75s22.21,27.29 20.18,59.12z"/>
  <path id="svg_3" opacity="0.1" d="m532.41,316.97l58.34,-61.85c1.38,-21.55 -8.35,-41 -14.78,-51.33c-0.81,0 -1.62,-0.06 -2.44,-0.06l-9.94,0l-40.68,45l-10.21,-4.84c0,0.45 0,0.89 0,1.34l0,57.65l19.71,14.09z"/>
  <polygon id="svg_4" fill="#4d8af0" points="513.12 425.2 628.63 629.85 782.34 696.24 801.44 678.05 661.37 545.26 634.99 426.11 513.12 425.2"/>
  <path id="svg_5" opacity="0.1" d="m514.94,429.1l58.38,103.4l30.5,-13.79a66.48,66.48 0 0 0 39.07,-58.75l-7,-31.59l-119.46,-0.61l-1.49,1.34z"/>
  <path id="svg_6" fill="#4d8af0" d="m515.54,425.5l-176.54,155.16l-33.29,170.45l31.61,-0.58l91.24,-155.24l174.35,-78.79a66.51,66.51 0 0 0 32.09,-90.39l0,0l-119.46,-0.61z"/>
  <path id="svg_7" opacity="0.1" d="m635.45,429.3l-121.88,-1.8l0,-180.42a41.52,41.52 0 0 1 41.52,-41.52l19.34,0a76.47,76.47 0 0 1 76.47,76.47l-15.45,147.27z"/>
  <path id="svg_8" fill="#535461" d="m635.45,427.5l-121.88,-1.82l0,-180.42a41.52,41.52 0 0 1 41.52,-41.52l19.34,0a76.47,76.47 0 0 1 76.47,76.47l-15.45,147.29z"/>
  <path id="svg_9" fill="#535461" d="m340.31,766.27l-60,0a15.46,15.46 0 0 1 15.46,-15.46l41.84,0l2.7,15.46z"/>
  <path id="svg_10" fill="#535461" d="m814.22,685.95l-41.74,43.15l0,0a15.46,15.46 0 0 1 -0.37,-21.86l29.09,-30.07l13.02,8.78z"/>
  <path id="svg_11" opacity="0.1" d="m650.46,282.41l-78.22,61.85l-59.12,-31.41l5.72,-51.19l40.67,14.38l30.44,-25.13c24.61,-20.31 62.23,-2.08 60.63,29.79q-0.05,0.85 -0.12,1.71z"/>
  <path id="svg_12" fill="#fda57d" d="m539.95,158.26l40,0a0,0 0 0 1 0,0l0,54.93a16,16 0 0 1 -16,16l-8,0a16,16 0 0 1 -16,-16l0,-54.93a0,0 0 0 1 0,0z"/>
  <path id="svg_13" opacity="0.1" d="m539.95,192.6a69.28,69.28 0 0 0 40,0l0,-32.52l-40,0l0,32.52z"/>
  <circle id="svg_14" fill="#fda57d" r="69.12" cy="124.6" cx="559.96"/>
  <path id="svg_15" opacity="0.1" d="m503.18,82.68s24.49,36.92 47.23,29.64l34.87,75.87s30.62,16.9 48.81,-14.93s62.76,-57.3 35.47,-82.77s-45.48,-22.74 -50,-46.39s17.25,-32.73 -24.56,-34.55s-67.3,-1.82 -69.12,12.73s-57.19,1.65 -22.7,60.4z"/>
  <path id="svg_16" fill="#72351c" d="m505,82.68s24.49,36.92 47.23,29.64l34.87,75.88s30.62,16.9 48.81,-14.93s62.76,-57.3 35.47,-82.77s-24.1,-22.28 -28.65,-45.93s-4.09,-33.2 -45.93,-35s-67.3,-1.82 -69.12,12.73s-57.17,1.63 -22.68,60.38z"/>
  <polygon id="svg_17" fill="#535461" points="541.49 229.2 579.97 203.93 591.79 216.47 566.32 241.93 541.49 229.2"/>
  <ellipse id="svg_18" fill="#fda57d" ry="13.64" rx="6.37" cy="132.79" cx="559.96"/>
  <path id="svg_19" fill="url(#0b6d47c4-b656-4227-9455-99964de86042)" d="m854.39,38.26l0,0a22.68,22.68 0 0 1 -13,29.57l-475.82,174l-9,-21.88l468.05,-194.27a22.68,22.68 0 0 1 29.77,12.58z"/>
  <path id="svg_20" fill="#a12020" d="m851.21,39.5l0,0a22.38,22.38 0 0 1 -12.88,29.19l-469.67,171.81l-8.92,-21.6l462.09,-191.79a22.38,22.38 0 0 1 29.38,12.39z"/>
  <path id="svg_21" opacity="0.1" d="m650.46,278.77l-78.22,61.85l-174.63,-92.77l12.73,-28.2l149.16,52.75l30.44,-25.13c24.61,-20.31 62.23,-2.08 60.63,29.79q-0.04,0.86 -0.11,1.71z"/>
  <path id="svg_22" fill="#535461" d="m650.46,280.59l-78.22,61.85l-174.63,-92.78l12.73,-28.16l149.16,52.72l30.44,-25.13c24.61,-20.31 62.23,-2.08 60.63,29.79q-0.04,0.86 -0.11,1.71z"/>
  <path id="svg_23" fill="#fda57d" d="m398.06,250.12s-39.81,-9.25 -29,-35.09s41.73,6.9 41.73,6.9l-12.73,28.19z"/>
  <path id="svg_24" fill="#fda57d" d="m418.07,195.5s-3.75,16.36 -25.07,9.54c0,0.05 5.06,-14.95 25.07,-9.54z"/>
  <g stroke="null" id="svg_83">
   <path stroke="null" id="svg_74" fill="#2f2e41" d="m39.52783,754.02067l12.23032,1.30806c9.66051,5.30445 20.99923,7.30129 33.55721,6.89481a10.06352,9.16496 0 0 0 8.52461,-4.75761l0,0a9.97306,9.08257 0 0 0 -6.50627,-13.17253l-9.2931,-1.97127l-22.42426,-19.97343l-13.52808,-22.29736l-19.65061,2.0524l-4.09083,28.32177l0,0a24.07209,21.92271 0 0 0 21.18102,23.59515z"/>
   <path stroke="null" id="svg_75" fill="#2f2e41" d="m230.00955,739.69217l11.98702,2.56866c8.93398,6.27233 19.94899,9.43271 32.47607,10.33195a10.06345,9.16489 0 0 0 9.06435,-3.84202l0,0a9.97306,9.08257 0 0 0 -4.81592,-13.76186l-8.98595,-2.92271l-19.77943,-22.17026l-10.65041,-23.55594l-19.77946,0l-7.60746,27.71282l0,0a24.07209,21.92271 0 0 0 18.09118,25.63937z"/>
   <path stroke="null" id="svg_76" fill="#2f2e41" d="m239.83637,687.90694l-22.3676,3.13391l-35.27198,-162.17986l-61.08082,-94.8008l-73.9851,275.78412l-27.52936,4.70087c3.08695,-155.30463 -11.98003,-350.82595 22.3676,-374.50229l149.69089,15.66955l65.38219,159.82943l-17.20582,172.36507z"/>
   <circle stroke="null" transform="matrix(1.6610688338751736,0,0,1.5127532569813493,-29146.998790239835,-25349.045965789348) " id="svg_77" fill="#ffb8b8" r="31.0749" cy="16791.08538" cx="17626.26432"/>
   <polygon stroke="null" id="svg_78" fill="#ffb8b8" points="59.17451572418213,123.80227613449097 121.1162691116333,133.20442914962769 136.60106372833252,83.062171459198 91.86678791046143,70.52665662765503 59.17451572418213,123.80227613449097 "/>
   <path stroke="null" id="svg_79" fill="#a12020" d="m33.36618,346.3107l165.17615,14.1026c-13.24204,-41.93413 -25.37449,-83.72077 -15.48526,-125.35642c12.55805,-37.17071 0.43698,-59.27503 -32.69111,-76.78081l-22.3676,-45.4417l-60.22039,-6.26782l0,0a129.98895,118.38234 0 0 0 -18.45036,78.28507c8.58067,59.26704 6.26348,114.26349 -15.96143,161.45907z"/>
   <path stroke="null" id="svg_80" fill="#2f2e41" d="m111.14221,-1.62597c17.62871,-1.10909 38.01067,-1.41511 40.56304,2.81358c18.25485,-0.77756 34.15335,5.0218 41.48651,18.51726a9.76592,8.89393 0 0 1 -6.10086,12.45498c-9.26062,2.43158 -23.37587,5.43971 -33.67485,4.47911c-21.38932,22.90144 -12.38976,64.67122 8.37179,89.07354l-18.76101,3.50221l-35.60043,-45.15056l11.23338,49.69933l-43.3232,6.45331l-15.1102,-63.15925a105.42008,96.0072 0 0 1 2.31937,-45.11377a39.81024,36.25561 0 0 1 1.81389,-4.33883a55.31339,50.3745 0 0 1 46.78258,-29.23093z"/>
   <path stroke="null" id="svg_81" fill="#ffb8b8" d="m140.04245,393.31936l-1.14129,36.37869a21.77947,19.8348 0 0 0 19.60344,20.30284l0,0a21.77947,19.8348 0 0 0 23.19224,-24.91143l-8.96333,-30.20312l-25.80872,-128.49036l1.72058,-75.21385l-55.05872,-1.56696l10.32354,84.61558l36.13225,119.0886z"/>
   <path stroke="null" id="svg_82" fill="#a12020" d="m90.14548,197.44996a87.00845,79.23953 0 0 1 61.94106,0l-3.44117,-62.67822a27.52934,25.07127 0 0 0 -27.52933,-25.07127l0,0a27.52934,25.07127 0 0 0 -27.52933,25.07127l-3.44124,62.67822z"/>
  </g>
 </g>
</svg>