<svg width="500" height="458.56" xmlns="http://www.w3.org/2000/svg">
 <title>Cautious dog</title>

 <g>
  <title>background</title>
  <rect fill="none" id="canvas_background" height="460.56" width="502" y="-1" x="-1"/>
 </g>
 <g>
  <title>Layer 1</title>
  <g id="svg_30" stroke="null">
   <ellipse cx="9216.67585" cy="6861.3963" rx="47.00964" ry="47.88601" fill="#ff6584" id="svg_13" transform="matrix(0.5206158390540193,0,0,0.4167758651605866,-4581.892614959653,-2796.92634592661) " stroke="null"/>
   <path d="m231.93874,100.57275a4.56314,3.65299 0 0 0 -5.45081,1.13382c-2.17376,2.2128 -5.13988,7.06852 -4.00122,16.59344l4.41006,36.89017l0.70202,37.18495s6.63366,17.1438 16.34685,16.98212s-8.04456,-16.42114 -8.04456,-16.42114s2.46264,-29.49997 1.4505,-37.96656c-0.94358,-7.89289 8.39659,-49.49879 -5.41284,-54.39679l0,-0.00001z" fill="#ffb8b8" id="svg_14" stroke="null"/>
   <path d="m219.96295,83.69469l-5.56812,12.30581l7.95964,2.00497l1.11768,17.85783l-19.73494,-8.66835l-9.93969,-8.9313l-1.24026,-6.85375s7.6649,-1.08398 10.45188,-14.88667l16.95382,7.17147l-0.00001,-0.00001z" fill="#ffb8b8" id="svg_15" stroke="null"/>
   <path d="m257.32863,186.50577s34.81957,28.50855 25.84725,43.54039s-52.75993,67.65218 -52.75993,67.65218l-11.71401,-12.16542s11.51414,-6.82637 16.87653,-22.82441s17.49959,-27.04731 21.08182,-30.97989s-33.63474,-31.45233 -30.34726,-38.47386s31.01561,-6.74901 31.01561,-6.74901l-0.00001,0.00002z" fill="#ffb8b8" id="svg_16" stroke="null"/>
   <path d="m257.32863,186.50577s34.81957,28.50855 25.84725,43.54039s-52.75993,67.65218 -52.75993,67.65218l-11.71401,-12.16542s11.51414,-6.82637 16.87653,-22.82441s17.49959,-27.04731 21.08182,-30.97989s-33.63474,-31.45233 -30.34726,-38.47386s31.01561,-6.74901 31.01561,-6.74901l-0.00001,0.00002z" opacity="0.1" id="svg_17" stroke="null"/>
   <path d="m235.45002,289.01217s3.63765,5.86496 2.54182,8.20548s-6.84196,15.85286 -6.84196,15.85286s6.11817,19.57247 1.67944,19.13696s-20.50245,-13.6397 -19.79037,-18.46588l2.0472,-13.87528l-4.97278,3.18413l-6.32976,-7.96512l8.82201,-8.92651s9.47279,-8.25067 12.43194,-7.96033s10.41245,10.81367 10.41245,10.81367l0.00001,0.00002z" fill="#2f2e41" id="svg_18" stroke="null"/>
   <path d="m228.53236,193.47253l2.33609,4.51327l9.81124,35.23496s3.90467,4.05514 2.68626,17.39973s19.68378,64.96788 19.68378,64.96788l0.70621,10.47339l-12.57638,-1.23393l-8.57684,-13.08166s-3.22031,-13.78009 -12.62598,-26.33103s-9.39389,-43.15009 -9.39389,-43.15009l-25.3132,-47.16002l19.91882,-7.83777l13.34388,6.20528l0.00001,-0.00001z" fill="#ffb8b8" id="svg_19" stroke="null"/>
   <path d="m258.76133,309.04753s3.78795,-0.24035 4.34972,1.03878s11.88618,26.25845 11.88618,26.25845s21.53698,16.80124 11.00194,16.99161s-28.20092,-2.15492 -31.18779,-7.34401s-6.44649,-12.26061 -6.44649,-12.26061l-1.06811,7.23928l-8.34339,-4.49064s-4.66631,-24.32607 0.77923,-25.6278s19.02871,-1.80505 19.02871,-1.80505l0,-0.00001z" fill="#2f2e41" id="svg_20" stroke="null"/>
   <path d="m246.05966,171.32398s8.81616,6.37304 7.98736,6.90373s5.00052,1.71462 3.90467,4.05514s4.9392,7.21667 1.98005,6.92634s-14.43971,-3.86476 -27.13866,5.90538l-2.21939,-0.21775l0.29474,3.08895s-9.19991,-8.85872 -32.96797,4.72144c0,0 -7.87063,-2.60825 -6.77481,-4.94875s-12.78211,-4.92615 -5.28937,-20.10315s30.6932,-14.73672 30.6932,-14.73672l29.53017,8.4054l0.00001,-0.00001z" fill="#2f2e41" id="svg_21" stroke="null"/>
   <path d="m198.29752,93.19711s-3.81566,-4.65842 -6.12404,-4.27289s-14.92951,0.15296 -16.94314,3.6274s7.57535,39.5179 6.03446,44.87478s-9.72383,45.5584 -2.68199,48.69734s15.27435,-11.96549 15.27435,-11.96549s22.13818,-7.62002 40.92761,-2.71647s13.02149,-1.78243 13.02149,-1.78243s-13.46061,-10.50077 -11.4134,-24.37605s2.96501,-15.00924 -0.49462,-22.08074c0,0 -0.6172,-11.07665 -0.17216,-14.09303s3.19846,-6.41825 1.15712,-7.84255s-23.22815,-5.33905 -23.22815,-5.33905s10.74077,3.50185 5.85701,6.08271s-21.21454,-8.81353 -21.21454,-8.81353z" fill="#3f3d56" id="svg_22" stroke="null"/>
   <ellipse cx="9217.96586" cy="6884.5796" rx="34.34959" ry="34.98996" fill="#ffb8b8" id="svg_23" transform="matrix(0.5206158390540193,0,0,0.4167758651605866,-4581.892614959653,-2796.92634592661) " stroke="null"/>
   <path d="m179.53726,90.86299a4.56561,3.65497 0 0 1 5.41805,1.23381c2.11199,2.25223 4.94302,7.16128 3.54113,16.66283l-5.42953,36.79965l-1.73061,37.16257s1.11768,17.85783 -8.58856,17.51751s0.27289,-17.10939 0.27289,-17.10939s-1.64587,-29.53777 -0.39974,-37.98359c1.16167,-7.87353 -7.02504,-49.64069 6.91638,-54.28338l-0.00001,-0.00001z" fill="#ffb8b8" id="svg_24" stroke="null"/>
   <path d="m203.68013,27.21295a13.41028,10.73552 0 0 0 7.71917,4.32733c5.39785,1.1787 0.04409,7.79334 0.04409,7.79334s1.94682,-2.40533 -0.8612,-4.95263s-7.32685,-4.28884 -6.90206,-7.16804z" fill="#ff6584" id="svg_25" stroke="null"/>
   <ellipse cx="9208.88727" cy="6809.04764" rx="13.10105" ry="13.34528" fill="#ff6584" id="svg_26" transform="matrix(0.5206158390540193,0,0,0.4167758651605866,-4581.892614959653,-2796.92634592661) " stroke="null"/>
   <path d="m203.69186,45.58225c5.56029,-1.71501 14.81866,-2.5846 19.58186,-1.99017l-0.65325,-3.8898c-4.57922,1.92995 -13.79511,2.83691 -19.58186,1.99017l0.65325,3.8898z" fill="#3f3d56" id="svg_27" stroke="null"/>
   <path d="m214.45102,46.97459s6.96855,9.45214 23.17279,12.99055s0.13237,23.39545 0.13237,23.39545s5.84431,-7.22074 -2.58532,-14.8677s-21.9951,-12.87501 -20.71984,-21.51831l0,0.00001z" fill="#ff6584" id="svg_28" stroke="null"/>
   <path d="m213.89796,46.40022s-6.69449,12.98294 -14.04401,14.21039s-6.79206,21.74179 4.70142,24.81801c0,0 -8.38084,-12.02638 -1.21714,-20.09193s11.68864,-14.4415 10.55973,-18.93647z" fill="#ff6584" id="svg_29" stroke="null"/>
  </g>
  <g stroke="null" id="svg_60">
   <g stroke="null" transform="matrix(0.6447534707524027,0,0,0.6566720278069405,-7448.675048386914,-5524.917056918333) " id="svg_58">
    <title stroke="null" transform="translate(60.48823547363281,21.319622039794922) translate(-296.23724365234375,28.933773040771484) translate(-18.611764907836914,25.888113021850586) translate(-113.22157287597656,85.27848815917969) translate(-183.1243896484375,-152.80934143066406) translate(167.98887634277344,-290.8759765625) translate(-521.5196533203125,-312.5398864746094) translate(12059.3134765625,0) translate(0,9024.638671875) ">background</title>
    <rect stroke="null" x="11154.07596" y="8428.83346" width="802" height="602" id="svg_56" fill="none"/>
   </g>
   <g stroke="null" transform="matrix(0.6447534707524027,0,0,0.6566720278069405,-7448.675048386914,-5524.917056918333) " id="svg_59">
    <title stroke="null" transform="translate(60.48823547363281,21.319622039794922) translate(-296.23724365234375,28.933773040771484) translate(-18.611764907836914,25.888113021850586) translate(-113.22157287597656,85.27848815917969) translate(-183.1243896484375,-152.80934143066406) translate(167.98887634277344,-290.8759765625) translate(-521.5196533203125,-312.5398864746094) translate(12059.3134765625,0) translate(0,9024.638671875) ">Layer 1</title>
    <ellipse stroke="null" cx="11793.61589" cy="9128.24919" rx="94.61675" ry="20.02368" fill="#e6e6e6" id="svg_55"/>
    <path stroke="null" d="m11773.51767,8622.15086s10.33754,38.56622 19.12253,41.12946s-46.85953,10.56617 -46.85953,10.56617l-1.22754,-34.56155l28.96454,-17.13408z" fill="#a0616a" id="svg_54"/>
    <polygon stroke="null" points="11728.075149536133,8862.720989227295 11738.365188598633,8884.772747039795 11750.125930786133,8873.011028289795 11742.775344848633,8855.370403289795 11728.075149536133,8862.720989227295 " fill="#a0616a" id="svg_53"/>
    <polygon stroke="null" points="11855.972610473633,8849.490520477295 11853.031204223633,8870.071575164795 11844.210891723633,8864.191692352295 11844.210891723633,8842.139934539795 11855.972610473633,8849.490520477295 " fill="#a0616a" id="svg_52"/>
    <polygon stroke="null" points="11729.544876098633,9071.471965789795 11725.134719848633,9106.754192352295 11748.656204223633,9108.223918914795 11745.715774536133,9071.471965789795 11729.544876098633,9071.471965789795 " fill="#a0616a" id="svg_51"/>
    <polygon stroke="null" points="11858.912063598633,9071.471965789795 11863.322219848633,9106.754192352295 11839.800735473633,9108.223918914795 11842.741165161133,9071.471965789795 11858.912063598633,9071.471965789795 " fill="#a0616a" id="svg_50"/>
    <path stroke="null" d="m11739.83427,8850.96155s-10.29056,27.93151 -8.82048,39.69215s-11.76064,72.03391 -7.3504,77.91423s4.41024,13.23072 1.47008,17.641s-4.41024,-1.47008 -2.94016,5.88032s-1.47008,44.10239 0,49.98271s-4.41024,7.3504 -1.47008,13.23072s7.3504,23.52128 7.3504,23.52128l19.111,-1.47008l2.94016,-16.17088s8.82048,-1.47008 7.3504,-10.29056s7.3504,-67.62367 7.3504,-67.62367l24.99135,-82.32447l35.28192,74.97407s1.47008,52.92287 5.88032,58.80319s-4.41024,22.0512 0,27.93152s8.82048,16.17088 8.82048,16.17088l22.0512,0l0,-11.76068s13.23071,-7.3504 0,-29.4016l-2.94016,-126.42686l-8.82048,-60.27327l-110.25595,0z" fill="#2f2e41" id="svg_49"/>
    <path stroke="null" d="m11751.59491,9102.34517s-10.29056,-4.41024 -14.7008,-1.47008s-7.3504,-1.47008 -7.3504,-1.47008s-5.88035,-2.94013 -7.35035,1.47016a43.42533,43.42533 0 0 1 -4.41024,8.82048s-8.82048,16.17087 -2.94016,20.58111s10.29056,7.3504 10.29056,10.29056s27.93152,4.41024 27.93152,0s-1.47013,-38.22215 -1.47013,-38.22215z" fill="#2f2e41" id="svg_48"/>
    <path stroke="null" d="m11836.85954,9102.34517s10.29056,-4.41024 14.7008,-1.47008s7.3504,-1.47008 7.3504,-1.47008s5.88032,-2.94016 7.3504,1.47008a43.42556,43.42556 0 0 0 4.41023,8.82048s8.82048,16.17087 2.94016,20.58111s-10.29055,7.3504 -10.29055,10.29056s-27.93152,4.41024 -27.93152,0s1.47008,-38.22207 1.47008,-38.22207z" fill="#2f2e41" id="svg_47"/>
    <path stroke="null" d="m11827.30402,8670.87677s-41.16223,-16.17088 -63.21343,-10.29056s-58.8032,32.34176 -57.33312,38.22207s15.43584,74.239 15.43584,74.239s0,41.16223 7.3504,54.39295s8.82048,23.52128 8.82048,23.52128l-1.47008,14.70079s38.22208,2.94016 58.80319,-5.88031s54.393,-2.94016 54.393,-2.94016s-17.641,-73.504 -26.46144,-85.26463s3.67516,-100.70043 3.67516,-100.70043z" fill="#575a89" id="svg_46"/>
    <path stroke="null" d="m11719.25315,8695.13309l-13.23072,4.41023s-11.76063,17.641 -11.76063,29.4016s-1.47008,85.26463 4.41024,95.55519s11.76063,30.87168 20.58111,32.34176l10.29056,13.23071l17.641,-11.76063l-5.88035,-13.23072l-22.05121,-149.94814z" fill="#575a89" id="svg_45"/>
    <path stroke="null" d="m11807.45794,8673.08189l14.62329,-4.10714l5.95783,2.63706s22.0512,22.0512 29.4016,44.10239s8.82048,107.31583 8.82048,107.31583s1.47008,4.41024 0,5.88032s-2.94016,2.94016 -2.94016,5.88032s-2.94016,8.82048 -2.94016,8.82048l-1.47008,11.76064l-14.7008,-1.47008s-27.93152,-82.32447 -27.93152,-101.43554s-8.82048,-79.38428 -8.82048,-79.38428z" fill="#575a89" id="svg_44"/>
    <path stroke="null" d="m11803.35712,8663.37498s0.42562,-7.199 -3.98462,-8.66909s-10.29056,-8.82048 -22.05119,-5.88032s-42.63232,7.3504 -44.1024,10.29056s-5.88032,4.41024 -4.41024,7.3504s4.41024,0 1.47008,2.94016s-4.41024,1.47008 -2.94016,2.94016s1.47008,8.82048 1.47008,8.82048s22.0512,14.70079 27.93152,13.23072s40.97527,-32.33794 40.97527,-32.33794l5.64166,1.31487z" fill="#575a89" id="svg_43"/>
    <polygon stroke="null" points="11728.730422973633,8759.567668914795 11727.240188598633,8809.642864227295 11739.000930786133,8844.924114227295 11728.730422973633,8759.567668914795 " opacity="0.2" id="svg_42"/>
    <polygon stroke="null" points="11830.189407348633,8737.689739227295 11843.491165161133,8785.989543914795 11840.416946411133,8823.052043914795 11830.189407348633,8737.689739227295 " opacity="0.2" id="svg_41"/>
    <circle stroke="null" cx="11757.85115" cy="8619.39434" r="31.20373" fill="#a0616a" id="svg_40"/>
    <path stroke="null" d="m11731.29736,8617.24184q3.30276,8.43831 6.60554,16.87662c2.70685,6.91579 5.807,14.31487 12.152,18.17448c7.83389,4.76532 18.2954,2.44175 25.87374,-2.72031c13.52694,-9.214 20.40531,-27.20389 16.47615,-43.09218s-18.39968,-28.5986 -34.662,-30.44573l-0.31361,5.64861l-6.93146,-5.81c-1.84405,3.71319 -7.67362,4.53762 -10.475,1.48139c1.82081,3.77421 -0.28063,8.37738 -3.31529,11.26861c-3.72831,3.55174 -14.39177,7.82034 -13.94925,14.16973c0.29525,4.23711 6.82051,10.05775 8.53918,14.44878z" fill="#2f2e41" id="svg_39"/>
   </g>
  </g>
  <g stroke="null" id="svg_338">
   <g stroke="null" transform="matrix(0.6447534707524027,0,0,0.6566720278069405,-7448.675048386914,-5524.917056918333) " id="svg_318">
    <title id="svg_316" stroke="null" transform="translate(-65.14117431640625,22.842453002929688) translate(221.79019165039062,201.01358032226562) translate(60.48823547363281,21.319622039794922) translate(-296.23724365234375,28.933773040771484) translate(-18.611764907836914,25.888113021850586) translate(-113.22157287597656,85.27848815917969) translate(-183.1243896484375,-152.80934143066406) translate(167.98887634277344,-290.8759765625) translate(-521.5196533203125,-312.5398864746094) translate(12059.3134765625,0) translate(0,9024.638671875) ">background</title>
    <rect stroke="null" x="11310.72498" y="8652.6895" width="802" height="602" id="svg_317" fill="none"/>
   </g>
   <g stroke="null" transform="matrix(0.6447534707524027,0,0,0.6566720278069405,-7448.675048386914,-5524.917056918333) " id="svg_337">
    <title id="svg_319" stroke="null" transform="translate(-65.14117431640625,22.842453002929688) translate(221.79019165039062,201.01358032226562) translate(60.48823547363281,21.319622039794922) translate(-296.23724365234375,28.933773040771484) translate(-18.611764907836914,25.888113021850586) translate(-113.22157287597656,85.27848815917969) translate(-183.1243896484375,-152.80934143066406) translate(167.98887634277344,-290.8759765625) translate(-521.5196533203125,-312.5398864746094) translate(12059.3134765625,0) translate(0,9024.638671875) ">Layer 1</title>
    <ellipse stroke="null" cx="11950.26491" cy="9352.10523" rx="94.61675" ry="20.02368" fill="#e6e6e6" id="svg_320"/>
    <path stroke="null" d="m11930.16669,8846.00689s10.33754,38.56622 19.12253,41.12946s-46.85953,10.56617 -46.85953,10.56617l-1.22754,-34.56155l28.96454,-17.13408z" fill="#a0616a" id="svg_321"/>
    <polygon stroke="null" points="11884.724060058594,9086.57682800293 11895.014099121094,9108.62858581543 11906.774841308594,9096.86686706543 11899.424255371094,9079.22624206543 11884.724060058594,9086.57682800293 " fill="#a0616a" id="svg_322"/>
    <polygon stroke="null" points="12012.621520996094,9073.34635925293 12009.680114746094,9093.92741394043 12000.859802246094,9088.04753112793 12000.859802246094,9065.99577331543 12012.621520996094,9073.34635925293 " fill="#a0616a" id="svg_323"/>
    <polygon stroke="null" points="11886.193786621094,9295.32780456543 11881.783630371094,9330.61003112793 11905.305114746094,9332.07975769043 11902.364685058594,9295.32780456543 11886.193786621094,9295.32780456543 " fill="#a0616a" id="svg_324"/>
    <polygon stroke="null" points="12015.560974121094,9295.32780456543 12019.971130371094,9330.61003112793 11996.449645996094,9332.07975769043 11999.390075683594,9295.32780456543 12015.560974121094,9295.32780456543 " fill="#a0616a" id="svg_325"/>
    <path stroke="null" d="m11896.48329,9074.81758s-10.29056,27.93151 -8.82048,39.69215s-11.76064,72.03391 -7.3504,77.91423s4.41024,13.23072 1.47008,17.641s-4.41024,-1.47008 -2.94016,5.88032s-1.47008,44.10239 0,49.98271s-4.41024,7.3504 -1.47008,13.23072s7.3504,23.52128 7.3504,23.52128l19.111,-1.47008l2.94016,-16.17088s8.82048,-1.47008 7.3504,-10.29056s7.3504,-67.62367 7.3504,-67.62367l24.99135,-82.32447l35.28192,74.97407s1.47008,52.92287 5.88032,58.80319s-4.41024,22.0512 0,27.93152s8.82048,16.17088 8.82048,16.17088l22.0512,0l0,-11.76068s13.23071,-7.3504 0,-29.4016l-2.94016,-126.42686l-8.82048,-60.27327l-110.25595,0z" fill="#2f2e41" id="svg_326"/>
    <path stroke="null" d="m11908.24393,9326.2012s-10.29056,-4.41024 -14.7008,-1.47008s-7.3504,-1.47008 -7.3504,-1.47008s-5.88035,-2.94013 -7.35035,1.47016a43.42533,43.42533 0 0 1 -4.41024,8.82048s-8.82048,16.17087 -2.94016,20.58111s10.29056,7.3504 10.29056,10.29056s27.93152,4.41024 27.93152,0s-1.47013,-38.22215 -1.47013,-38.22215z" fill="#2f2e41" id="svg_327"/>
    <path stroke="null" d="m11993.50856,9326.2012s10.29056,-4.41024 14.7008,-1.47008s7.3504,-1.47008 7.3504,-1.47008s5.88032,-2.94016 7.3504,1.47008a43.42556,43.42556 0 0 0 4.41023,8.82048s8.82048,16.17087 2.94016,20.58111s-10.29055,7.3504 -10.29055,10.29056s-27.93152,4.41024 -27.93152,0s1.47008,-38.22207 1.47008,-38.22207z" fill="#2f2e41" id="svg_328"/>
    <path stroke="null" d="m11983.95304,8894.7328s-41.16223,-16.17088 -63.21343,-10.29056s-58.8032,32.34176 -57.33312,38.22207s15.43584,74.239 15.43584,74.239s0,41.16223 7.3504,54.39295s8.82048,23.52128 8.82048,23.52128l-1.47008,14.70079s38.22208,2.94016 58.80319,-5.88031s54.393,-2.94016 54.393,-2.94016s-17.641,-73.504 -26.46144,-85.26463s3.67516,-100.70043 3.67516,-100.70043z" fill="#575a89" id="svg_329"/>
    <path stroke="null" d="m11875.90217,8918.98912l-13.23072,4.41023s-11.76063,17.641 -11.76063,29.4016s-1.47008,85.26463 4.41024,95.55519s11.76063,30.87168 20.58111,32.34176l10.29056,13.23071l17.641,-11.76063l-5.88035,-13.23072l-22.05121,-149.94814z" fill="#575a89" id="svg_330"/>
    <path stroke="null" d="m11964.10696,8896.93792l14.62329,-4.10714l5.95783,2.63706s22.0512,22.0512 29.4016,44.10239s8.82048,107.31583 8.82048,107.31583s1.47008,4.41024 0,5.88032s-2.94016,2.94016 -2.94016,5.88032s-2.94016,8.82048 -2.94016,8.82048l-1.47008,11.76064l-14.7008,-1.47008s-27.93152,-82.32447 -27.93152,-101.43554s-8.82048,-79.38428 -8.82048,-79.38428z" fill="#575a89" id="svg_331"/>
    <path stroke="null" d="m11960.00614,8887.23101s0.42562,-7.199 -3.98462,-8.66909s-10.29056,-8.82048 -22.05119,-5.88032s-42.63232,7.3504 -44.1024,10.29056s-5.88032,4.41024 -4.41024,7.3504s4.41024,0 1.47008,2.94016s-4.41024,1.47008 -2.94016,2.94016s1.47008,8.82048 1.47008,8.82048s22.0512,14.70079 27.93152,13.23072s40.97527,-32.33794 40.97527,-32.33794l5.64166,1.31487z" fill="#575a89" id="svg_332"/>
    <polygon stroke="null" points="11885.379333496094,8983.42350769043 11883.889099121094,9033.49870300293 11895.649841308594,9068.77995300293 11885.379333496094,8983.42350769043 " opacity="0.2" id="svg_333"/>
    <polygon stroke="null" points="11986.838317871094,8961.54557800293 12000.140075683594,9009.84538269043 11997.065856933594,9046.90788269043 11986.838317871094,8961.54557800293 " opacity="0.2" id="svg_334"/>
    <circle stroke="null" cx="11914.50017" cy="8843.25038" r="31.20373" fill="#a0616a" id="svg_335"/>
    <path stroke="null" d="m11887.94638,8841.09787q3.30276,8.43831 6.60554,16.87662c2.70685,6.91579 5.807,14.31487 12.152,18.17448c7.83389,4.76532 18.2954,2.44175 25.87374,-2.72031c13.52694,-9.214 20.40531,-27.20389 16.47615,-43.09218s-18.39968,-28.5986 -34.662,-30.44573l-0.31361,5.64861l-6.93146,-5.81c-1.84405,3.71319 -7.67362,4.53762 -10.475,1.48139c1.82081,3.77421 -0.28063,8.37738 -3.31529,11.26861c-3.72831,3.55174 -14.39177,7.82034 -13.94925,14.16973c0.29525,4.23711 6.82051,10.05775 8.53918,14.44878z" fill="#2f2e41" id="svg_336"/>
   </g>
  </g>
  <g stroke="null" id="svg_361">
   <g stroke="null" transform="matrix(0.6447534707524027,0,0,0.6566720278069405,-7448.675048386914,-5524.917056918333) " id="svg_341">
    <title id="svg_339" stroke="null" transform="translate(17.0607852935791,18.273962020874023) translate(66.69215393066406,-289.3377380371094) translate(221.79019165039062,201.01358032226562) translate(60.48823547363281,21.319622039794922) translate(-296.23724365234375,28.933773040771484) translate(-18.611764907836914,25.888113021850586) translate(-113.22157287597656,85.27848815917969) translate(-183.1243896484375,-152.80934143066406) translate(167.98887634277344,-290.8759765625) translate(-521.5196533203125,-312.5398864746094) translate(12059.3134765625,0) translate(0,9024.638671875) ">background</title>
    <rect stroke="null" x="11459.61909" y="8358.78327" width="802" height="602" id="svg_340" fill="none"/>
   </g>
   <g stroke="null" transform="matrix(0.6447534707524027,0,0,0.6566720278069405,-7448.675048386914,-5524.917056918333) " id="svg_360">
    <title id="svg_342" stroke="null" transform="translate(17.0607852935791,18.273962020874023) translate(66.69215393066406,-289.3377380371094) translate(221.79019165039062,201.01358032226562) translate(60.48823547363281,21.319622039794922) translate(-296.23724365234375,28.933773040771484) translate(-18.611764907836914,25.888113021850586) translate(-113.22157287597656,85.27848815917969) translate(-183.1243896484375,-152.80934143066406) translate(167.98887634277344,-290.8759765625) translate(-521.5196533203125,-312.5398864746094) translate(12059.3134765625,0) translate(0,9024.638671875) ">Layer 1</title>
    <ellipse stroke="null" cx="12099.15902" cy="9058.199" rx="94.61675" ry="20.02368" fill="#e6e6e6" id="svg_343"/>
    <path stroke="null" d="m12079.0608,8552.10066s10.33754,38.56622 19.12253,41.12946s-46.85953,10.56617 -46.85953,10.56617l-1.22754,-34.56155l28.96454,-17.13408z" fill="#a0616a" id="svg_344"/>
    <polygon stroke="null" points="12033.61840248108,8792.670446395874 12043.90844154358,8814.722204208374 12055.66918373108,8802.960485458374 12048.31859779358,8785.319860458374 12033.61840248108,8792.670446395874 " fill="#a0616a" id="svg_345"/>
    <polygon stroke="null" points="12161.51586341858,8779.439977645874 12158.57445716858,8800.021032333374 12149.75414466858,8794.141149520874 12149.75414466858,8772.089391708374 12161.51586341858,8779.439977645874 " fill="#a0616a" id="svg_346"/>
    <polygon stroke="null" points="12035.08812904358,9001.421422958374 12030.67797279358,9036.703649520874 12054.19945716858,9038.173376083374 12051.25902748108,9001.421422958374 12035.08812904358,9001.421422958374 " fill="#a0616a" id="svg_347"/>
    <polygon stroke="null" points="12164.45531654358,9001.421422958374 12168.86547279358,9036.703649520874 12145.34398841858,9038.173376083374 12148.28441810608,9001.421422958374 12164.45531654358,9001.421422958374 " fill="#a0616a" id="svg_348"/>
    <path stroke="null" d="m12045.3774,8780.91135s-10.29056,27.93151 -8.82048,39.69215s-11.76064,72.03391 -7.3504,77.91423s4.41024,13.23072 1.47008,17.641s-4.41024,-1.47008 -2.94016,5.88032s-1.47008,44.10239 0,49.98271s-4.41024,7.3504 -1.47008,13.23072s7.3504,23.52128 7.3504,23.52128l19.111,-1.47008l2.94016,-16.17088s8.82048,-1.47008 7.3504,-10.29056s7.3504,-67.62367 7.3504,-67.62367l24.99135,-82.32447l35.28192,74.97407s1.47008,52.92287 5.88032,58.80319s-4.41024,22.0512 0,27.93152s8.82048,16.17088 8.82048,16.17088l22.0512,0l0,-11.76068s13.23071,-7.3504 0,-29.4016l-2.94016,-126.42686l-8.82048,-60.27327l-110.25595,0z" fill="#2f2e41" id="svg_349"/>
    <path stroke="null" d="m12057.13804,9032.29497s-10.29056,-4.41024 -14.7008,-1.47008s-7.3504,-1.47008 -7.3504,-1.47008s-5.88035,-2.94013 -7.35035,1.47016a43.42533,43.42533 0 0 1 -4.41024,8.82048s-8.82048,16.17087 -2.94016,20.58111s10.29056,7.3504 10.29056,10.29056s27.93152,4.41024 27.93152,0s-1.47013,-38.22215 -1.47013,-38.22215z" fill="#2f2e41" id="svg_350"/>
    <path stroke="null" d="m12142.40267,9032.29497s10.29056,-4.41024 14.7008,-1.47008s7.3504,-1.47008 7.3504,-1.47008s5.88032,-2.94016 7.3504,1.47008a43.42556,43.42556 0 0 0 4.41023,8.82048s8.82048,16.17087 2.94016,20.58111s-10.29055,7.3504 -10.29055,10.29056s-27.93152,4.41024 -27.93152,0s1.47008,-38.22207 1.47008,-38.22207z" fill="#2f2e41" id="svg_351"/>
    <path stroke="null" d="m12132.84715,8600.82657s-41.16223,-16.17088 -63.21343,-10.29056s-58.8032,32.34176 -57.33312,38.22207s15.43584,74.239 15.43584,74.239s0,41.16223 7.3504,54.39295s8.82048,23.52128 8.82048,23.52128l-1.47008,14.70079s38.22208,2.94016 58.80319,-5.88031s54.393,-2.94016 54.393,-2.94016s-17.641,-73.504 -26.46144,-85.26463s3.67516,-100.70043 3.67516,-100.70043z" fill="#575a89" id="svg_352"/>
    <path stroke="null" d="m12024.79628,8625.08289l-13.23072,4.41023s-11.76063,17.641 -11.76063,29.4016s-1.47008,85.26463 4.41024,95.55519s11.76063,30.87168 20.58111,32.34176l10.29056,13.23071l17.641,-11.76063l-5.88035,-13.23072l-22.05121,-149.94814z" fill="#575a89" id="svg_353"/>
    <path stroke="null" d="m12113.00107,8603.03169l14.62329,-4.10714l5.95783,2.63706s22.0512,22.0512 29.4016,44.10239s8.82048,107.31583 8.82048,107.31583s1.47008,4.41024 0,5.88032s-2.94016,2.94016 -2.94016,5.88032s-2.94016,8.82048 -2.94016,8.82048l-1.47008,11.76064l-14.7008,-1.47008s-27.93152,-82.32447 -27.93152,-101.43554s-8.82048,-79.38428 -8.82048,-79.38428z" fill="#575a89" id="svg_354"/>
    <path stroke="null" d="m12108.90025,8593.32478s0.42562,-7.199 -3.98462,-8.66909s-10.29056,-8.82048 -22.05119,-5.88032s-42.63232,7.3504 -44.1024,10.29056s-5.88032,4.41024 -4.41024,7.3504s4.41024,0 1.47008,2.94016s-4.41024,1.47008 -2.94016,2.94016s1.47008,8.82048 1.47008,8.82048s22.0512,14.70079 27.93152,13.23072s40.97527,-32.33794 40.97527,-32.33794l5.64166,1.31487z" fill="#575a89" id="svg_355"/>
    <polygon stroke="null" points="12034.27367591858,8689.517126083374 12032.78344154358,8739.592321395874 12044.54418373108,8774.873571395874 12034.27367591858,8689.517126083374 " opacity="0.2" id="svg_356"/>
    <polygon stroke="null" points="12135.73266029358,8667.639196395874 12149.03441810608,8715.939001083374 12145.96019935608,8753.001501083374 12135.73266029358,8667.639196395874 " opacity="0.2" id="svg_357"/>
    <circle stroke="null" cx="12063.39428" cy="8549.34415" r="31.20373" fill="#a0616a" id="svg_358"/>
    <path stroke="null" d="m12036.84049,8547.19164q3.30276,8.43831 6.60554,16.87662c2.70685,6.91579 5.807,14.31487 12.152,18.17448c7.83389,4.76532 18.2954,2.44175 25.87374,-2.72031c13.52694,-9.214 20.40531,-27.20389 16.47615,-43.09218s-18.39968,-28.5986 -34.662,-30.44573l-0.31361,5.64861l-6.93146,-5.81c-1.84405,3.71319 -7.67362,4.53762 -10.475,1.48139c1.82081,3.77421 -0.28063,8.37738 -3.31529,11.26861c-3.72831,3.55174 -14.39177,7.82034 -13.94925,14.16973c0.29525,4.23711 6.82051,10.05775 8.53918,14.44878z" fill="#2f2e41" id="svg_359"/>
   </g>
  </g>
 </g>
</svg>