<svg width="500" height="376.56" xmlns="http://www.w3.org/2000/svg">

 <title>Cautious dog</title>
 <g>
  <title>background</title>
  <rect fill="none" id="canvas_background" height="378.56" width="502" y="-1" x="-1"/>
 </g>
 <g>
  <title>Layer 1</title>
  <path id="svg_195" fill="#f3ad55" d="m461.28,102.8c-0.48,33.7 -28.91,60.35 -62.61,60.35l-4.69,0a15.85,15.85 0 0 0 -11.1,4.48a15.43,15.43 0 0 0 -4.51,7.87a14.45,14.45 0 0 0 -0.47,3.73l0,59.49a59.59,59.59 0 0 1 -9.4,32.27c-8.83,13.78 -14,29.55 -14,45.91l0,0a28.69,28.69 0 0 1 -29.21,28.67c-15.76,-0.29 -28.12,-13.84 -28.12,-29.61l0,-14.88l-7.81,0.92l0,14.9a28.7,28.7 0 0 1 -29.22,28.67c-15.76,-0.29 -28.11,-13.84 -28.11,-29.61l0,-7.53c-7.82,3.26 -52.12,3.26 -64.42,0.11l-3.34,-0.26l0,8.62a28.69,28.69 0 0 1 -29.21,28.67c-15.77,-0.29 -28.12,-13.84 -28.12,-29.61l0,-12.37l-2.61,-0.24l0,13.55a29.29,29.29 0 0 1 -0.88,7.12a28.73,28.73 0 0 1 -28.33,21.55c-14.41,-0.26 -25.95,-11.6 -27.86,-25.59a35.4,35.4 0 0 1 -0.26,-4l0,-62.27a95.36,95.36 0 0 1 20.33,-59a17.68,17.68 0 0 0 0.49,-20.88c-14.59,-21.37 -36.17,-57.43 -35.46,-83c0.18,-7.4 2.21,-13.89 6.83,-18.92c0.28,-0.31 0.57,-0.62 0.86,-0.91c21,-22 58,-4.69 54.77,25.54a84.85,84.85 0 0 0 2.22,30.23a92.67,92.67 0 0 0 5.86,16.21a27.48,27.48 0 0 0 28.12,15.63a96.93,96.93 0 0 1 11.75,-0.7l120.47,0a33.85,33.85 0 0 0 32,-23a32.84,32.84 0 0 0 1.82,-10.92l0,-93.71a18.24,18.24 0 0 1 18.82,-18.24a17.72,17.72 0 0 1 12.62,5.83a19.65,19.65 0 0 1 5.08,13.14a9.66,9.66 0 0 0 9.67,9.66l56.78,0a61.21,61.21 0 0 1 61.23,62.13l0.02,0z"/>
  <path id="svg_196" fill="#fbdca3" d="m103.39,324.02a28.73,28.73 0 0 1 -28.33,21.55c-14.41,-0.26 -25.95,-11.6 -27.86,-25.59c17.36,-4.7 41.41,-7.92 56.19,4.04z"/>
  <path id="svg_197" fill="#fbdca3" d="m163.32,324.02a28.71,28.71 0 0 1 -28.32,21.55c-14.41,-0.26 -26,-11.6 -27.86,-25.59c17.36,-4.7 41.41,-7.92 56.18,4.04z"/>
  <path id="svg_198" fill="#fbdca3" d="m288.41,324.02a28.72,28.72 0 0 1 -28.33,21.55c-14.41,-0.26 -26,-11.6 -27.85,-25.59c17.35,-4.7 41.4,-7.92 56.18,4.04z"/>
  <path id="svg_199" fill="#fbdca3" d="m353.56,324.02a28.73,28.73 0 0 1 -28.33,21.55c-14.41,-0.26 -26,-11.6 -27.86,-25.59c17.36,-4.7 41.41,-7.92 56.19,4.04z"/>
  <path id="svg_200" fill="#fbdca3" d="m96.98,126.8c-20.25,-8.13 -45,-23 -64.68,-35.94c0.18,-7.4 2.21,-13.89 6.83,-18.92c0.28,-0.31 0.57,-0.62 0.86,-0.91c21,-22 58,-4.69 54.77,25.54a84.85,84.85 0 0 0 2.22,30.23z"/>
  <path id="svg_201" fill="#fbdca3" d="m121.5,158.12s55.75,70.18 147,-0.18"/>
  <path id="svg_202" fill="#fbdca3" d="m297.11,27.64s33.88,44.3 0,99"/>
  <path id="svg_203" fill="#fbdca3" d="m377.9,178.79s-29.84,37.07 -0.4,66.49"/>
  <path id="svg_204" opacity="0.1" d="m380.5,170.97c-2.21,2.08 -1.46,4.09 -2.13,7.14l-96.87,-25.38c5.21,-4 11.67,-8.78 13.81,-15.14c11.6,9.01 34.56,24.13 85.19,33.38z"/>
  <path id="svg_205" fill="#383f4d" d="m382.88,167.63a15.43,15.43 0 0 0 -4.51,7.87l-94.44,-24.62a33.71,33.71 0 0 0 11.36,-15.9c11.62,9.02 36.95,23.4 87.59,32.65z"/>
  <path id="svg_206" opacity="0.1" d="m298.84,140.19s29.55,22.22 79.06,29.09"/>
  <path id="svg_207" fill="#f3ad55" d="m298.84,137.59s29.55,22.22 79.06,29.1"/>
  <path id="svg_208" opacity="0.1" d="m372.69,139.7s49.51,15.63 62.54,-33.88l-62.54,33.88z"/>
  <path id="svg_209" fill="#fbdca3" d="m372.69,137.09s49.51,15.64 62.54,-33.87l-62.54,33.87z"/>
  <ellipse id="svg_210" fill="#383f4d" ry="9.12" rx="5.21" cy="96.7" cx="461.29"/>
  <path id="svg_211" opacity="0.1" d="m66.5,284.33l10.42,-83.39s-31.28,49.51 -10.42,83.39"/>
  <path id="svg_212" fill="#fbdca3" d="m79.5,200.94s-31.27,49.51 -10.43,83.39l10.43,-83.39z"/>
 </g>
</svg>