<svg width="871" height="477" xmlns="http://www.w3.org/2000/svg">
 <g>
  <title>background</title>
  <rect x="-1" y="-1" width="873" height="479" id="canvas_background" fill="none"/>
 </g>

 <g>
  <title>Layer 1</title>
  <ellipse fill="#3f3d56" stroke-width="null" stroke-opacity="null" fill-opacity="null" cx="436.99999" cy="240" id="svg_41" rx="238.49999" ry="240.00001" stroke-dasharray="2,2" opacity="0.51" stroke="null"/>
  <path d="m158.58478,473.31991a141.78086,141.78086 0 0 1 -106.05278,-139.39391c0.12189,-7.912 0.95378,-15.99006 4.27976,-23.17011s9.50394,-13.39013 17.23186,-15.09142c8.43389,-1.8567 17.33349,1.93875 23.61873,7.861s10.40636,13.736 14.198,21.49495c22.83782,46.734 40.18948,96.87978 46.6859,148.48823l0.03853,-0.18874z" fill="#f2f2f2" id="svg_1"/>
  <path d="m70.21742,297.22373l16.00606,36.36706l16.00605,36.36707c5.06915,11.51753 10.12863,23.04011 15.36814,34.48151c5.1935,11.34091 10.565,22.6034 16.29525,33.684c5.72218,11.06486 11.80377,21.94913 18.40506,32.51522q1.23309,1.9737 2.49042,3.93207c0.58008,0.90424 2.03014,0.06546 1.44594,-0.84519c-6.72792,-10.48764 -12.92722,-21.30541 -18.7416,-32.32388c-5.82065,-11.03036 -11.2609,-22.25748 -16.5002,-33.57426c-5.26729,-11.37724 -10.332,-22.84667 -15.38325,-34.321q-7.97541,-18.11688 -15.948,-36.235l-16.00606,-36.36706l-1.99186,-4.52568c-0.43316,-0.98418 -1.87645,-0.13294 -1.44595,0.84519l0,-0.00005z" fill="#fff" id="svg_2"/>
  <path d="m151.90783,473.5727a82.96675,82.96675 0 0 1 -92.69195,-43.7407c-2.07267,-4.1407 -3.82153,-8.55925 -4.03308,-13.1849s1.31945,-9.51764 4.87237,-12.48717c3.87749,-3.2408 9.52264,-3.67283 14.38463,-2.29486s9.111,4.32217 13.17418,7.32689c24.47345,18.09816 47.01961,39.44868 64.3248,64.48912l-0.03095,-0.10838z" fill="#f2f2f2" id="svg_3"/>
  <path d="m58.48961,406.00243l18.12782,14.56013l18.12782,14.56012c5.74112,4.61123 11.47858,9.22769 17.2876,13.75339c5.758,4.486 11.58721,8.88317 17.55363,13.089c5.95795,4.19992 12.05376,8.209 18.33348,11.91267q1.173,0.69183 2.3545,1.36915c0.54528,0.31286 1.07169,-0.51408 0.52254,-0.82916c-6.32429,-3.62872 -12.46326,-7.57154 -18.45656,-11.72248c-5.99977,-4.15542 -11.85515,-8.51568 -17.63042,-12.97675c-5.80612,-4.4849 -11.53195,-9.07234 -17.25211,-13.666q-9.03159,-7.2529 -18.062,-14.50723l-18.12785,-14.56007l-2.25591,-1.81193c-0.49058,-0.394 -1.01011,0.43755 -0.52254,0.82916z" fill="#fff" id="svg_4"/>
  <path d="m720.28137,472.40917a197.71913,197.71913 0 0 0 147.89483,-194.39038c-0.17,-11.03365 -1.33009,-22.29878 -5.9683,-32.31163s-13.25362,-18.67308 -24.03052,-21.04559c-11.7614,-2.58925 -24.17224,2.70365 -32.93726,10.96252s-14.51208,19.1554 -19.79965,29.97557c-31.84825,65.17248 -56.04583,135.10273 -65.10535,207.07277l-0.05375,-0.26326z" fill="#f2f2f2" id="svg_5"/>
  <path d="m843.51317,226.836l-22.32108,50.71532l-22.32109,50.71534c-7.06914,16.06165 -14.12478,32.13035 -21.43149,48.08584c-7.24254,15.81536 -14.73324,31.52135 -22.72438,46.97365c-7.9798,15.43039 -16.46082,30.60893 -25.66658,45.34377q-1.7196,2.75239 -3.473,5.48342c-0.80894,1.261 -2.83111,0.09129 -2.01642,-1.17865c9.38236,-14.62542 18.02753,-29.71125 26.13591,-45.07694c8.11713,-15.38228 15.70377,-31.03894 23.01018,-46.82064c7.34545,-15.866 14.40842,-31.8606 21.45257,-47.862q11.122,-25.26471 22.24012,-50.53117l22.32109,-50.71534l2.77774,-6.31124c0.60406,-1.37248 2.61678,-0.18539 2.01643,1.17865l0,-0.00001z" fill="#fff" id="svg_6"/>
  <path d="m729.59264,472.76169a115.70046,115.70046 0 0 0 129.26262,-60.99811c2.89042,-5.77437 5.32927,-11.93622 5.62429,-18.38687s-1.84,-13.27273 -6.79471,-17.41385c-5.40732,-4.51943 -13.2797,-5.12191 -20.05994,-3.20027s-12.70567,6.02741 -18.3719,10.21764c-34.1292,25.2386 -65.57072,55.01276 -89.7035,89.93265l0.04314,-0.15119z" fill="#f2f2f2" id="svg_7"/>
  <path d="m859.86807,378.53226l-25.28,20.30467l-25.28,20.30468c-8.00622,6.43054 -16.00733,12.86837 -24.10824,19.17965c-8.02976,6.25585 -16.15884,12.38793 -24.47924,18.25319c-8.30861,5.857 -16.80945,11.44783 -25.56678,16.61269q-1.63582,0.96479 -3.28344,1.90933c-0.76041,0.4363 -1.49451,-0.7169 -0.7287,-1.1563c8.81948,-5.06038 17.38052,-10.55881 25.73841,-16.34746c8.36692,-5.7949 16.53249,-11.87546 24.58632,-18.09659c8.09686,-6.25438 16.08177,-12.65175 24.05876,-19.05776q12.5949,-10.11447 25.18823,-20.23092l25.28,-20.30468l3.14595,-2.5268c0.68414,-0.54949 1.40864,0.61018 0.72871,1.1563l0.00002,0z" fill="#fff" id="svg_8"/>
  <path d="m215.93307,146.87l0,0.01l-8.33984,6.97l-57.3501,12.74a14.49734,14.49734 0 1 0 10.87012,26.88l36.52978,-6.15a44.82107,44.82107 0 0 0 5.98,-1.42c0.77,-0.23 1.53028,-0.49 2.28028,-0.76a233.31978,233.31978 0 0 1 13.61962,-41.26l-3.58986,2.99z" fill="#2f2e41" id="svg_9"/>
  <path d="m692.27291,182.07l-7.9497,-0.05l-4.25,-0.02l-24.3501,-42.57a11.93045,11.93045 0 0 0 0.52979,-1.37c2.71044,-8.36 -4.43995,-14.11 -11.25,-13.99a9.83824,9.83824 0 0 0 -2.29981,0.27a234.21618,234.21618 0 0 1 26.56982,78.16a13.58385,13.58385 0 0 0 2.11036,0.42a45.06536,45.06536 0 0 0 11.13964,-0.38c4.96,-0.63 9.6504,-1.52 12.1504,-1.33l-2.4004,-19.14z" fill="#a0616a" id="svg_10"/>
  <path d="m718.48288,182.88l-29.21973,-4.06a4.50493,4.50493 0 0 0 -4.93994,3.2a4.58487,4.58487 0 0 0 -0.14014,0.63995l-2.33984,16.83a4.52717,4.52717 0 0 0 3.83008,5.08l29.21972,4.06a12.99951,12.99951 0 1 0 3.58985,-25.75l0,0.00005z" fill="#a12020" id="svg_11"/>
  <path d="m671.38327,202.92a235.26241,235.26241 0 0 0 -26.38037,-78.85a238.28591,238.28591 0 0 0 -429.06983,22.8l0,0.01a234.62134,234.62134 0 0 0 -12.31007,39.02a239.91472,239.91472 0 0 0 -5.68994,52.1a238,238 0 0 0 476,0a241.44779,241.44779 0 0 0 -2.54979,-35.08zm-235.4502,271.08c-130.12988,0 -236,-105.87 -236,-236a234.59283,234.59283 0 0 1 19.58984,-94.12c36.41993,-83.43 119.72022,-141.88 216.41016,-141.88c88.9502,0 166.56006,49.47 206.77,122.34a234.21618,234.21618 0 0 1 26.56984,78.16a237.51853,237.51853 0 0 1 2.66016,35.5c0,130.13 -105.87007,236 -236,236z" fill="#3f3d56" id="svg_12"/>
  <polygon points="197.859 463.363 210.119 463.362 215.951 416.074 197.857 416.075 197.859 463.363" fill="#ffb8b8" id="svg_20"/>
  <path d="m953.25776,1823.44724l38.53073,0a0,0 0 0 1 0,0l0,14.88687a0,0 0 0 1 0,0l-23.64389,0a14.88686,14.88686 0 0 1 -14.88684,-14.88686l0,0a0,0 0 0 1 0,-0.00001z" transform="rotate(179.99737548828125 593.5257568359375,1150.0880126953125) " fill="#2f2e41" id="svg_21"/>
  <polygon points="136.859 463.363 149.119 463.362 154.951 416.074 136.857 416.075 136.859 463.363" fill="#ffb8b8" id="svg_22"/>
  <path d="m770.25776,1823.45005l38.53073,0a0,0 0 0 1 0,0l0,14.88687a0,0 0 0 1 0,0l-23.64389,0a14.88686,14.88686 0 0 1 -14.88684,-14.88686l0,0a0,0 0 0 1 0,-0.00001z" transform="rotate(179.99737548828125 471.52575683593756,1150.0908203125) " fill="#2f2e41" id="svg_23"/>
  <path d="m201.20994,270.63109l10.77686,85.38586q2.22234,17.60784 3.10973,35.34586l2.90347,58.06853a4,4 0 0 1 -3.995,4.19975l-16.35639,0a4,4 0 0 1 -3.9547,-3.39974l-14.71009,-96.91351a2,2 0 0 0 -3.94338,-0.06694l-17.72157,94.91673a4,4 0 0 1 -3.62624,3.18423l-15.054,0.95518a4,4 0 0 1 -4.29,-4.11428l4.8613,-155.56167l62.00001,-22z" fill="#2f2e41" id="svg_24"/>
  <circle cx="153.46191" cy="124.44998" r="24.56103" fill="#ffb8b8" id="svg_25"/>
  <path d="m134.20994,294.63109c6,14 32,24 38,4c4.64014,-15.46 23.02,-21.96 31.12988,-24.11a4.01608,4.01608 0 0 0 2.86036,-4.86005l-22.67041,-89.05a31.272,31.272 0 0 0 -21.06006,-22.16c-18.01953,-5.58 -37.01953,5.91 -40.06983,24.52a137.15658,137.15658 0 0 0 -1.58984,15.76c-1.88037,39.29006 9.44971,86.68001 13.3999,95.90005z" fill="#a12020" id="svg_26"/>
  <path d="m270.631,214.407a10.0558,10.0558 0 0 0 -14.86428,4.09986l-35.57707,-3.35428l8.72276,16.39351l32.44729,0.672a10.11027,10.11027 0 0 0 9.2713,-17.81109z" fill="#ffb8b8" id="svg_27"/>
  <path d="m252.93882,232.63863a4.50494,4.50494 0 0 1 -3.35167,1.493l-46.44007,-1.06136a46.37348,46.37348 0 0 1 -30.54652,-11.5132l-27.84556,-24.42107a14.49652,14.49652 0 1 1 13.956,-25.41307l46.11785,36.39125l44.90343,8.65347a4.51468,4.51468 0 0 1 3.41059,3.88645l0.922,8.49143a4.50563,4.50563 0 0 1 -0.52015,2.63472a4.4552,4.4552 0 0 1 -0.6059,0.85838z" fill="#2f2e41" id="svg_28"/>
  <path d="m134.81947,144.5392a4.00707,4.00707 0 0 0 5.90277,-2.36827l0.01372,-0.0559c0.44576,-1.86411 0.0756,-3.81068 -0.05233,-5.72308s0.05926,-4.01326 1.36175,-5.41937c2.428,-2.62114 6.74756,-1.23165 10.25844,-1.89439a8.6643,8.6643 0 0 0 6.74006,-9.25292c-0.05,-0.3975 -0.1284,-0.79545 -0.21633,-1.19315a6.67289,6.67289 0 0 1 6.92676,-8.0813c3.5481,0.20289 7.378,1.2779 10.31357,-1.35011a7.60773,7.60773 0 0 0 1.82653,-8.20133c-1.67623,-4.83831 -6.4137,-7.37125 -11.10185,-8.76368a40.62031,40.62031 0 0 0 -34.43036,5.64955c-2.96119,2.08724 -5.72662,4.70983 -6.98873,8.10575s-0.65322,7.6803 2.19277,9.92206a18.332,18.332 0 0 0 -4.24618,17.80644c1.40569,4.5295 8.11444,8.87202 11.49941,10.8197z" fill="#2f2e41" id="svg_29"/>
  <polygon points="664.132 463.174 651.873 463.174 646.04 415.886 664.135 415.887 664.132 463.174" fill="#a0616a" id="svg_30"/>
  <path d="m643.11551,461.67067l23.64388,0a0,0 0 0 1 0,0l0,14.88687a0,0 0 0 1 0,0l-38.53073,0a0,0 0 0 1 0,0l0,0a14.88685,14.88685 0 0 1 14.88685,-14.88687z" fill="#2f2e41" id="svg_31"/>
  <polygon points="751.132 463.174 738.873 463.174 733.04 415.886 751.135 415.887 751.132 463.174" fill="#a0616a" id="svg_32"/>
  <path d="m730.11552,461.67067l23.64387,0a0,0 0 0 1 0,0l0,14.88687a0,0 0 0 1 0,0l-38.53073,0a0,0 0 0 1 0,0l0,0a14.88686,14.88686 0 0 1 14.88686,-14.88687z" fill="#2f2e41" id="svg_33"/>
  <path d="m664.33905,433.88645c-0.13281,0 -0.26636,-0.00586 -0.40064,-0.0166l-17.3518,-1.38867a4.99972,4.99972 0 0 1 -4.5376,-5.78223l26.30811,-162.71972l1.7622,-22.95118a4.97169,4.97169 0 0 1 3.91626,-4.501l26.46142,-5.78805a4.96759,4.96759 0 0 1 5.19531,2.06055l6.45215,9.43066a110.39937,110.39937 0 0 0 8.24487,10.50879c4.57788,5.21387 12.36157,16.79 13.05982,35.73535a126.60763,126.60763 0 0 0 1.93384,18.55371l21.30347,114.76074a4.99835,4.99835 0 0 1 -4.43921,5.76464l-16.44848,1.2461a4.97917,4.97917 0 0 1 -5.302,-3.67969l-29.17677,-108.50098a0.99985,0.99985 0 0 0 -1.93189,0.00293l-30.21923,113.55078a5.00546,5.00546 0 0 1 -4.82983,3.71387z" fill="#2f2e41" id="svg_34"/>
  <circle cx="710.48222" cy="132.43466" r="24.56103" fill="#a0616a" id="svg_35"/>
  <path d="m668.85272,244.72044l-0.5083,-35.07422c-1.8706,-22.43262 8.064,-34.21094 16.72778,-40.13574a19.91868,19.91868 0 0 1 15.40332,-2.94825l19.32959,4.17871a20.37249,20.37249 0 0 1 13.05494,9.29688a19.02079,19.02079 0 0 1 2.17236,15.00781a20.597,20.597 0 0 1 -8.39966,11.50195c-16.60889,11.72461 -17.779,31.41895 -17.78906,31.61719l-0.02027,0.40723l-39.9707,6.14844z" fill="#a12020" id="svg_36"/>
  <path d="m615.20607,224.21236a11.03582,11.03582 0 0 1 -16.49656,0.47723c-9.68635,-10.1588 6.14794,-25.41277 15.87107,-15.23211l0,0a10.67772,10.67772 0 0 1 0.9524,1.12012l49.02807,-1.21875l5.852,-10.70313l17.98487,6.9834c-3.45266,5.35453 -7.4174,26.36975 -16.448,25.34668c-1.184,0.03177 -55.53306,-6.68707 -56.74385,-6.77344z" fill="#a0616a" id="svg_37"/>
  <path d="m680.7933,216.114l-13.7053,-10.05807a4.50507,4.50507 0 0 1 -0.96546,-6.2903l17.45369,-23.78275a13,13 0 1 1 20.96106,15.38291l-17.45369,23.78274a4.50508,4.50508 0 0 1 -6.2903,0.96547z" fill="#a12020" id="svg_38"/>
  <path d="m704.51176,126.29623a40.09446,40.09446 0 0 1 -10.71669,1.84545c-3.63658,-0.0412 -7.41584,-1.19679 -9.87176,-3.87912c-3.48829,-3.80988 -3.44245,-10.01671 -0.74274,-14.42068s7.5457,-7.14742 12.55624,-8.40362s10.24431,-1.197 15.40945,-1.12736c6.13353,-4.47189 15.077,-3.79157 21.37083,0.4517s10.13982,11.43612 11.77255,18.8491s1.27644,15.10928 0.65736,22.67464c-0.33925,4.14576 0.0081,9.52825 3.96877,10.79927c2.49945,0.8021 5.20054,-0.66948 6.99184,-2.58829s3.04238,-4.30285 4.91457,-6.14282c3.98975,-3.9211 10.39228,-4.716 15.66331,-2.84273s9.47564,6.0451 12.44017,10.789a37.53775,37.53775 0 0 1 -42.62805,55.84512c-13.524,-4.06069 -23.73447,-15.47462 -30.30482,-27.97341a92.38553,92.38553 0 0 1 -10.01872,-52.42248l-1.46231,-1.45377z" fill="#2f2e41" id="svg_39"/>
  <path d="m870,477l-869,0a1,1 0 0 1 0,-2l869,0a1,1 0 0 1 0,2z" fill="#3f3d56" id="svg_40"/>
  <text fill="#000000" stroke-width="0" stroke-dasharray="2,2" stroke-opacity="null" fill-opacity="null" x="260.83651" y="167.89187" id="svg_42" font-size="24" font-family="'League Gothic', sans-serif" text-anchor="start" xml:space="preserve" transform="matrix(2.6966526741927748,0,0,3.8875920634292433,-476.000895563458,-449.59012134977286) " stroke="null">INCIDENCIAS</text>
  <text fill="#000000" stroke-width="0" stroke-dasharray="2,2" stroke-opacity="null" fill-opacity="null" x="323.98268" y="306.02415" id="svg_43" font-size="24" font-family="'League Gothic', sans-serif" text-anchor="start" xml:space="preserve" transform="rotate(0.07745444774627686 368.3247680663518,271.86962890625296) matrix(4.264136150707477,0,0,5.686639451798783,-1093.4410822050786,-1421.7715321340818) " stroke="null">UACM</text>
 </g>
</svg>