<svg width="717.16127" height="660.62262" xmlns="http://www.w3.org/2000/svg">

 <g>
  <title>background</title>
  <rect fill="none" id="canvas_background" height="662.62262" width="719.16127" y="-1" x="-1"/>
 </g>
 <g>
  <title>Layer 1</title>
  <path id="svg_1" fill="#e6e6e6" d="m27.60391,642.52531c-12.47123,-3.36846 -27.64871,-17.37787 -24.39937,-36.6341c1.61151,-9.55005 7.79666,-15.732 14.20994,-19.72938c8.87087,-5.52916 18.97378,-7.61271 28.70982,-8.13909c11.2299,-0.60716 22.44726,0.92374 33.59326,2.5427c11.00345,1.59829 22.00778,3.02939 33.06039,3.90315a426.18014,426.18014 0 0 0 129.03626,-9.58117q15.6504,-3.61164 31.11314,-8.47412a213.747,213.747 0 0 0 28.5787,-10.6814c12.25583,-5.884 32.18686,-17.33381 30.56169,-38.53889c-0.86174,-11.24351 -7.48306,-20.2235 -14.16178,-26.47975c-8.07544,-7.56463 -17.41979,-12.54174 -26.57194,-17.37492c-42.57048,-22.4815 -85.22406,-44.6961 -127.836,-67.04222c-9.94515,-5.21532 -19.95642,-10.29094 -29.60825,-16.40265c-9.03649,-5.72208 -18.03069,-12.36888 -25.30284,-21.55936c-6.35165,-8.02717 -12.02739,-18.80348 -11.82715,-30.84974c0.16607,-9.99022 4.71232,-18.46776 10.28033,-24.80359c13.7853,-15.68634 33.28584,-22.0464 50.91043,-25.37787c21.89667,-4.139 44.11031,-4.11758 66.02128,-8.11428c17.69177,-3.22713 36.59531,-9.457 50.98378,-24.05564a45.59976,45.59976 0 0 0 12.42882,-21.715a42.67832,42.67832 0 0 0 -2.55578,-25.76792c-3.89761,-9.30965 -10.11483,-16.72576 -16.65219,-22.79844a99.91422,99.91422 0 0 0 -25.25621,-16.87332c-19.43291,-9.26028 -39.86761,-14.0818 -59.77313,-21.18823c-9.76212,-3.48517 -19.623,-7.30685 -28.68774,-13.29315c-7.67975,-5.07168 -16.04558,-11.90784 -20.31823,-22.0738c-8.81554,-20.9748 12.21534,-33.4755 24.13206,-38.21055a155.15632,155.15632 0 0 1 24.94085,-7.13993c1.7969,-0.38581 1.03447,-3.97259 -0.754,-3.58864a149.21675,149.21675 0 0 0 -26.19085,7.64762c-7.18613,2.9857 -14.60076,6.90949 -20.24543,13.66154a28.43768,28.43768 0 0 0 -6.42551,22.23459c1.4951,10.0639 7.99422,17.81842 14.098,23.43518c8.07158,7.42755 17.27457,12.27825 26.6055,16.23232c9.82719,4.16438 19.86291,7.40983 29.89527,10.59327c20.04681,6.36116 40.993,12.03 59.08979,25.56609c12.65932,9.469 29.85672,27.22287 25.64576,49.22911c-1.86927,9.76868 -7.54569,17.40622 -13.67139,23.0237a79.6032,79.6032 0 0 1 -24.484,14.88719c-40.10267,16.13908 -84.23838,4.59774 -123.3075,26.518c-13.28375,7.453 -29.41873,21.02272 -29.54861,42.37351c-0.06743,11.09129 4.37845,21.26358 9.87491,29.30381c6.5832,9.63 15.108,16.75125 23.78148,22.703a276.8197,276.8197 0 0 0 28.39866,16.44217q16.03077,8.42027 32.06858,16.81773l64.884,34.02583l32.238,16.90593c9.83916,5.15974 19.931,10.10922 28.877,17.68346c7.32486,6.20174 15.979,16.37607 15.23162,29.0098c-0.5935,10.03327 -7.25874,17.27376 -13.34931,22.11459c-7.88668,6.26837 -16.74607,10.32273 -25.56086,13.69186c-10.16729,3.886 -20.50176,7.10958 -30.85626,10.00791a416.59168,416.59168 0 0 1 -64.73684,12.67106a425.69162,425.69162 0 0 1 -65.76514,2.4513q-16.6374,-0.66951 -33.22314,-2.66156c-11.39758,-1.37281 -22.74638,-3.48763 -34.17334,-4.4259c-10.33591,-0.8487 -20.77138,-0.652 -30.95021,2.07575c-8.49907,2.27761 -17.47811,6.33735 -23.92963,14.2589a31.54334,31.54334 0 0 0 -6.69562,21.30472a38.25641,38.25641 0 0 0 7.84294,21.11158a35.4889,35.4889 0 0 0 18.97222,12.7361c1.78156,0.48117 2.54349,-3.10534 0.754,-3.58863l-0.00023,-0.00023z"/>
  <rect id="svg_2" fill="#3f3d56" height="2.24072" width="324.03261" y="644.22427" x="24.12866"/>
  <circle id="svg_3" fill="#e6e6e6" r="21.16809" cy="517.5024" cx="323.1997"/>
  <circle id="svg_4" fill="#e6e6e6" r="21.1681" cy="326.14839" cx="103.58072"/>
  <path id="svg_5" fill="#ffb8b8" d="m142.98096,560.13871s-18.298,24.79077 -22.42978,28.92259s-5.31229,19.47848 -5.31229,19.47848l7.08307,16.52718l-4.13182,8.26359l-31.87389,-31.87389l34.23488,-50.76211l22.42983,9.44416z"/>
  <path id="svg_6" fill="#2f2e41" d="m220.89483,408.44264s-66.23113,201.81379 -73.3142,206.53582s-41.96563,-24.91693 -52,-32s75.73391,-141.83163 75.73391,-141.83163c-13.57593,-44.26928 -7.08437,-54.54371 -7.08437,-54.54371l56.66466,21.83952z"/>
  <path id="svg_7" fill="#2f2e41" d="m117.00957,628.60847s-0.00005,-7.08307 2.27968,-10.61768s6.57417,12.38841 6.57417,12.38841s25.97134,7.083 14.16619,14.7564s-46.63029,-16.52718 -56.66466,-23.02s-6.49281,-14.16619 -1.18052,-19.47848l10.3295,-10.3295l24.49564,36.30085z"/>
  <path id="svg_8" fill="#ffb8b8" d="m242.14409,573.12431s5.31234,15.34666 10.03437,30.10311s27.15181,22.42978 27.15181,22.42978l4.13182,10.62463l-12.39541,5.90248l-36.00571,-8.85385s1.18052,-11.8051 1.18052,-15.93692s-18.88822,-38.957 -18.88822,-38.957l24.79082,-5.31223z"/>
  <circle id="svg_9" fill="#ffb8b8" r="24.79078" cy="207.16503" cx="195.51375"/>
  <path id="svg_10" fill="#ffb8b8" d="m181.93782,220.15066c0,3.54155 -17.7077,30.69336 -17.7077,30.69336l25.94067,11.5779l11.83577,-34.00767l-20.06874,-8.26359z"/>
  <path id="svg_11" fill="#2f2e41" d="m205.54812,349.41691a18.60951,18.60951 0 0 1 18.69751,18.1384l0.781,30.85295l4.13182,7.08307s25.42218,189.58458 25.42218,195.48713s-25.2436,22.18052 -40,21c-7.29984,-0.584 -23.66721,-67.64983 -30.16132,-104.36669c-4.62331,-26.13943 -9.13477,-54.58564 -13.666,-75.58568a186.64306,186.64306 0 0 0 -5.93287,-22.36864c-12.98567,-36.00563 9.44411,-70.24051 9.44411,-70.24051l31.28358,0l-0.00001,-0.00003z"/>
  <path id="svg_12" fill="#2f2e41" d="m274.31311,633.62563s3.24643,0.88539 -0.29513,-0.29513s-2.361,-7.67333 -2.21538,-10.97321s34.67948,7.43165 34.67948,15.69524s-44.26925,8.26359 -57.25492,7.08307s-15.93692,0 -17.7077,-8.26359s5.01716,-19.77361 5.01716,-19.77361l37.77649,16.52723z"/>
  <path id="svg_13" fill="#a12020" d="m176.60857,365.86771c4.616,0 14.544,-11.857 19.73988,-6.66087c3.77905,3.779 6.98565,7.409 9.81475,10.61167c8.12123,9.19367 15.22091,17.61941 20.15461,11.574c0.74578,-0.91379 -1.76138,1.19668 0.3293,-0.22565a5.05832,5.05832 0 0 0 2.03879,-5.489c-7.15863,-22.42745 -11.61645,-43.913 -5.924,-61.85926a14.55958,14.55958 0 0 0 0.59851,-4.39142q0.00068,-0.32608 0.03033,-0.65268c0.30088,-3.31183 0.22537,-15.17318 -13.365,-28.76349c-12.42073,-12.42076 -14.80369,-20.05316 -15.11783,-23.49729c-0.07381,-0.80208 -20.09611,-21.5755 -20.09611,-21.5755a5.03389,5.03389 0 0 0 -6.0285,1.69209l-6.4134,8.81846a84.34877,84.34877 0 0 0 -8.7955,44.67357c1.7363,20.00971 4.7509,59.5809 7.22678,73.8548a5.2146,5.2146 0 0 0 1.93095,3.28894a4.97151,4.97151 0 0 0 5.08942,0.60242a21.43522,21.43522 0 0 1 8.78702,-2.00079z"/>
  <path id="svg_14" fill="#d62a2a" d="m201.46363,208.11138l-4.45047,-4.703c0.37044,24.76455 23.73505,38.5822 23.73505,38.5822l-52.16706,-5.20062l-1.31852,-6.56935l-2.72552,5.40965l-6.36916,-1.613l-1.83243,-4.00542l-3.93046,2.13932l8.065,-31.84589c7.96486,-30.38013 32.25254,-25.92371 32.25254,-25.92371c34.0065,-10.63643 29.8387,21.79929 29.8387,21.79929l-21.09767,11.93053z"/>
  <polygon id="svg_15" opacity="0.2" points="181.595 525.642 172.134 441.966 183.767 519.477 181.595 525.642"/>
  <circle id="svg_16" fill="#2f2e41" r="13.11742" cy="174.69917" cx="164.75578"/>
  <path id="svg_17" fill="#2f2e41" d="m166.83885,185.32594c0.273,-0.00065 0.54458,0.00645 0.82079,-0.01131l0.02753,-0.00177a13.11742,13.11742 0 0 0 -1.71074,-26.179c-0.27616,0.01776 -0.54462,0.05953 -0.81548,0.0939a13.10067,13.10067 0 0 1 1.6779,26.09819l0,-0.00001z"/>
  <ellipse id="svg_18" fill="#ffb8b8" ry="5.73887" rx="4.09919" cy="209.13241" cx="197.54934"/>
  <path id="svg_19" fill="#feb8b8" d="m246.64357,399.45411l16.85164,11.926a11.90115,11.90115 0 0 1 0.98463,18.65113l0,0a11.90115,11.90115 0 0 1 -17.98133,-2.67653l-9.7515,-15.76678l-34.31638,-51.86084l14.21961,-10.46185l29.99333,50.18887z"/>
  <path id="svg_20" opacity="0.2" d="m219.58063,352.97846c0.0675,9.19068 -9.01578,17.17194 -21.84558,18.32633l-29.43177,-62.535a38.21351,38.21351 0 0 1 5.1403,-40.64162l0,0l29.71042,36.10578c0.92263,15.69568 7.61917,31.96436 16.42663,48.74451z"/>
  <path id="svg_21" fill="#a12020" d="m219.58063,348.97846c0.0675,9.19068 -5.01578,15.17194 -17.84558,16.32633l-29.43177,-62.535a38.21351,38.21351 0 0 1 5.1403,-40.64162l0,0l29.71042,36.10578c0.92263,15.69568 3.61917,33.96436 12.42663,50.74451z"/>
  <path id="svg_22" fill="#e6e6e6" d="m236.72163,0.88549l-58.777,25.55173a10.69385,10.69385 0 0 0 -5.53753,14.05476l18.2512,41.98347a10.6938,10.6938 0 0 0 14.05477,5.53757l58.777,-25.55173a10.69382,10.69382 0 0 0 5.53755,-14.05482l-18.25119,-41.98347a10.69386,10.69386 0 0 0 -14.0548,-5.53751zm2.4335,5.5978a4.557,4.557 0 0 1 1.0987,-0.31637l-19.87181,37.49228l-40.8146,-11.16918a4.58018,4.58018 0 0 1 0.81072,-0.455l58.77699,-25.55173zm21.90144,50.38019l-58.77694,25.55173a4.58316,4.58316 0 0 1 -6.02348,-2.37326l-18.0873,-41.60645l42.9598,11.75637a3.052,3.052 0 0 0 3.502,-1.5145l20.79933,-39.24265l17.99983,41.40525a4.58316,4.58316 0 0 1 -2.37325,6.02351l0.00001,0z"/>
  <text transform="matrix(2.7307452793226723,0,0,2.521999272065058,-715.4601667984631,-197.71984065718692) " xml:space="preserve" text-anchor="start" font-family="'League Gothic', sans-serif" font-size="24" id="svg_26" y="278.73557" x="353.76008" stroke-width="0" fill="#2f2e41">INCIDENCIAS</text>
  <g stroke="null" id="svg_86">
   <path stroke="null" id="svg_44" fill="#e6e6e6" d="m626.15876,309.17249a149.74916,179.80364 0 0 1 -19.4088,44.69783c-0.18854,0.31919 -0.38009,0.63135 -0.57305,0.94885l-24.83551,-9.65729c0.11231,-0.30785 0.23465,-0.65279 0.36556,-1.02954c7.82128,-22.21416 54.89242,-157.62244 49.8941,-185.85259c0.47745,2.31811 16.07299,79.01099 -5.4423,150.89275z"/>
   <path stroke="null" id="svg_45" fill="#e6e6e6" d="m611.54131,355.73344c-0.30338,0.27453 -0.61558,0.54563 -0.93077,0.80974l-18.63103,-7.24469c0.22283,-0.24728 0.48204,-0.53899 0.78062,-0.86813c4.87706,-5.4734 19.36593,-21.87271 33.39863,-39.25788c15.08036,-18.68258 29.63737,-38.50013 31.18624,-47.11892c-0.29132,1.96644 -9.47985,61.79275 -45.80369,93.67987z"/>
   <path stroke="null" id="svg_46" fill="#2f2e41" d="m639.60746,447.66773l-319.38075,0a10.70901,12.85829 0 0 1 -10.70901,-12.85829l0,0q173.66319,-24.23369 340.79876,0l0,0a10.70901,12.8583 0 0 1 -10.70901,12.85829z"/>
   <path stroke="null" id="svg_47" fill="#3f3d56" d="m650.31647,435.56579l-340.79876,-0.75637l39.49739,-79.79711l0.18897,-0.37819l0,-175.86384a13.53632,16.25304 0 0 1 13.53745,-16.25441l232.46131,0a13.53632,16.25305 0 0 1 13.53744,16.25441l0,177.07397l41.5762,79.72154z"/>
   <path stroke="null" id="svg_48" fill="#fff" d="m362.43286,173.86144a4.41455,5.30054 0 0 0 -4.4096,5.2946l0,160.35064a4.41475,5.30078 0 0 0 4.4096,5.2946l234.96846,0a4.41494,5.30102 0 0 0 4.4096,-5.2946l0,-160.35064a4.41475,5.30078 0 0 0 -4.4096,-5.2946l-234.96846,0z"/>
   <path stroke="null" id="svg_49" fill="#2f2e41" d="m363.97709,365.97967a1.89504,2.27538 0 0 0 -1.71697,1.3207l-12.17037,31.76758a1.88974,2.26901 0 0 0 1.71666,3.21756l255.9365,0a1.88961,2.26885 0 0 0 1.68989,-3.28401l-13.2288,-31.76758a1.88024,2.25761 0 0 0 -1.68989,-1.25422l-230.53701,-0.00003z"/>
   <circle stroke="null" transform="matrix(0.4300650469224146,0,0,0.5163786159601044,-1972.7450047135171,-1700.144838327405) " id="svg_50" fill="#fff" r="6.59142" cy="3617.41414" cx="5700.80547"/>
   <path stroke="null" id="svg_51" fill="#2f2e41" d="m453.8157,408.33644a1.89272,2.27258 0 0 0 -1.82462,1.67893l-3.05282,13.61468a1.88965,2.2689 0 0 0 1.82462,2.85929l58.05773,0a1.8894,2.2686 0 0 0 1.78526,-3.01143l-3.92483,-13.61467a1.89082,2.27031 0 0 0 -1.78586,-1.52678l-51.07948,-0.00003z"/>
   <polygon stroke="null" id="svg_52" fill="#2f2e41" points="608.7401123046875,351.9867248535156 608.7401123046875,355.01226806640625 349.01483154296875,355.01226806640625 349.2105407714844,354.6341552734375 349.2105407714844,351.9867248535156 608.7401123046875,351.9867248535156 "/>
   <path stroke="null" id="svg_53" fill="#e6e6e6" d="m527.99239,202.19204l-61.27982,0l0,1.34391l61.27982,0a11.37557,13.65863 0 0 1 0,27.31727l-92.72692,0a11.37557,13.65863 0 0 1 0,-27.31727l3.46522,0l0,-1.34391l-3.46522,0a12.49485,15.00255 0 0 0 0,30.00509l92.72692,0a12.49485,15.00255 0 1 0 0,-30.00509z"/>
   <path stroke="null" id="svg_54" fill="#e6e6e6" d="m527.99239,248.55705l-61.27982,0l0,1.34391l61.27982,0a11.37557,13.65864 0 0 1 0,27.31727l-92.72692,0a11.37557,13.65863 0 0 1 0,-27.31727l3.46522,0l0,-1.34391l-3.46522,0a12.49485,15.00255 0 0 0 0,30.00509l92.72692,0a12.49485,15.00255 0 1 0 0,-30.00509z"/>
   <path stroke="null" id="svg_55" fill="#e6e6e6" d="m527.99239,294.92205l-61.27982,0l0,1.34392l61.27982,0a11.37557,13.65863 0 1 1 0,27.31727l-92.72692,0a11.37557,13.65863 0 0 1 0,-27.31727l3.46522,0l0,-1.34392l-3.46522,0a12.49485,15.00255 0 0 0 0,30.0051l92.72692,0a12.49485,15.00255 0 1 0 0,-30.0051l0,-0.00001z"/>
   <path stroke="null" fill="#3f3d56" d="m445.64756,198.64164a3.32807,3.99601 0 0 0 0,7.99096l14.59856,0a3.32807,3.99601 0 1 0 0.10927,-7.99096q-0.05464,-0.00111 -0.10927,0l-14.59856,0z" id="svg_42"/>
   <path stroke="null" fill="#3f3d56" d="m445.64756,245.67861a3.32807,3.99601 0 0 0 0,7.99096l14.59856,0a3.32807,3.99601 0 0 0 0.10927,-7.99096q-0.05464,-0.00112 -0.10927,0l-14.59856,0z" id="svg_41"/>
   <path stroke="null" fill="#3f3d56" d="m445.64756,291.37166a3.32807,3.99601 0 0 0 0,7.99096l14.59856,0a3.32807,3.99601 0 0 0 0.10927,-7.99096q-0.05464,-0.00111 -0.10927,0l-14.59856,0z" id="svg_40"/>
   <path stroke="null" fill="#a12020" d="m439.85728,213.19912a3.32807,3.99601 0 0 0 0,7.99096l83.43403,0a3.32807,3.99601 0 1 0 0.10927,-7.99096q-0.05462,-0.00111 -0.10927,0l-83.43403,0z" id="svg_39"/>
   <path stroke="null" fill="#a12020" d="m439.85728,259.56413a3.32807,3.99601 0 0 0 0,7.99096l83.43403,0a3.32807,3.99601 0 1 0 0.10927,-7.99096q-0.05462,-0.00111 -0.10927,0l-83.43403,0z" id="svg_38"/>
   <path stroke="null" fill="#e6e6e6" d="m439.85728,305.92913a3.32807,3.99601 0 0 0 0,7.99096l83.43403,0a3.32807,3.99601 0 1 0 0.10927,-7.99096q-0.05462,-0.00111 -0.10927,0l-83.43403,0z" id="svg_37"/>
   <circle stroke="null" transform="matrix(0.4300650469224146,0,0,0.5163786159601044,-1972.7450047135171,-1700.144838327405) " id="svg_56" fill="#a12020" r="15.49522" cy="3712.4401" cx="5537.79945"/>
   <polygon stroke="null" id="svg_57" fill="#fff" points="408.250732421875,220.16717529296875 406.30926513671875,217.17022705078125 407.43841552734375,216.11566162109375 408.3577575683594,217.53480529785156 411.4627990722656,213.59881591796875 412.50152587890625,214.7803955078125 408.250732421875,220.16717529296875 "/>
   <circle stroke="null" transform="matrix(0.4300650469224146,0,0,0.5163786159601044,-1972.7450047135171,-1700.144838327405) " id="svg_58" fill="#a12020" r="15.49522" cy="3802.22888" cx="5537.79945"/>
   <polygon stroke="null" id="svg_59" fill="#fff" points="408.250732421875,266.5323486328125 406.30926513671875,263.5351867675781 407.43841552734375,262.4808044433594 408.3577575683594,263.8999328613281 411.4627990722656,259.9639892578125 412.50152587890625,261.1455383300781 408.250732421875,266.5323486328125 "/>
   <circle stroke="null" transform="matrix(0.4300650469224146,0,0,0.5163786159601044,-1972.7450047135171,-1700.144838327405) " id="svg_60" fill="#e6e6e6" r="15.49522" cy="3892.01767" cx="5537.79945"/>
   <circle stroke="null" transform="matrix(0.4300650469224146,0,0,0.5163786159601044,-1972.7450047135171,-1700.144838327405) " id="svg_61" fill="#e6e6e6" r="15.49522" cy="3712.4401" cx="5877.43528"/>
   <circle stroke="null" transform="matrix(0.4300650469224146,0,0,0.5163786159601044,-1972.7450047135171,-1700.144838327405) " id="svg_62" fill="#e6e6e6" r="15.49522" cy="3802.22888" cx="5877.43528"/>
   <circle stroke="null" transform="matrix(0.4300650469224146,0,0,0.5163786159601044,-1972.7450047135171,-1700.144838327405) " id="svg_63" fill="#e6e6e6" r="15.49522" cy="3892.01767" cx="5877.43528"/>
   <polygon stroke="null" id="svg_64" fill="#fff" points="408.250732421875,312.8974609375 406.30926513671875,309.90032958984375 407.43841552734375,308.845947265625 408.3577575683594,310.2651062011719 411.4627990722656,306.3291320800781 412.50152587890625,307.5099792480469 408.250732421875,312.8974609375 "/>
   <rect stroke="null" id="svg_65" fill="#fff" transform="matrix(0.30410191103015016,-0.36513482100511385,0.30410191103015016,0.36513482100511385,-2051.306837431554,1029.7812658472185) " height="12.25353" width="1.82392" y="4381.63753" x="6237.10445"/>
   <rect stroke="null" id="svg_66" fill="#fff" transform="matrix(0.30410191103015016,-0.36513482100511385,0.30410191103015016,0.36513482100511385,-2050.772945247287,1029.583991758291) " height="1.82392" width="12.25353" y="4387.17477" x="6232.47923"/>
   <rect stroke="null" id="svg_67" fill="#fff" transform="matrix(0.30410191103015016,-0.36513482100511385,0.30410191103015016,0.36513482100511385,-2018.9111013819183,1155.9994676605497) " height="12.25353" width="1.82392" y="4497.72483" x="6173.61419"/>
   <rect stroke="null" id="svg_68" fill="#fff" transform="matrix(0.30410191103015016,-0.36513482100511385,0.30410191103015016,0.36513482100511385,-2018.3771242962384,1155.8018331705798) " height="1.82392" width="12.25353" y="4503.26208" x="6168.98898"/>
   <rect stroke="null" id="svg_69" fill="#fff" transform="matrix(0.30410191103015016,-0.36513482100511385,0.30410191103015016,0.36513482100511385,-1986.5154675804088,1282.2178371862756) " height="12.25353" width="1.82392" y="4613.81213" x="6110.12394"/>
   <rect stroke="null" id="svg_70" fill="#fff" transform="matrix(0.30410191103015016,-0.36513482100511385,0.30410191103015016,0.36513482100511385,-1985.981460840862,1282.0201205354228) " height="1.82392" width="12.25353" y="4619.34942" x="6105.49873"/>
   <path stroke="null" id="svg_71" fill="#ffb8b8" d="m410.15097,306.40455l0,0a4.812,5.77776 0 0 0 0.89092,-8.72463l-6.39737,-8.37289l-6.1447,3.73557l4.70309,11.15312a4.812,5.77776 0 0 0 6.94806,2.20884z"/>
   <path stroke="null" id="svg_72" fill="#ffb8b8" d="m327.45412,331.27085l0,0a4.812,5.77776 0 0 0 4.07715,-7.30056l-2.55752,-10.93974l-6.88742,0l0,12.50122a4.812,5.77776 0 0 0 5.36779,5.73908z"/>
   <polygon stroke="null" id="svg_73" fill="#ffb8b8" points="367.23724365234375,413.7989196777344 380.2469482421875,411.34869384765625 374.8902282714844,404.6099853515625 367.23724365234375,404.6099853515625 367.23724365234375,413.7989196777344 "/>
   <path stroke="null" id="svg_74" fill="#ffb8b8" d="m325.4025,414.41128l13.51977,4.28801c-2.49012,-6.20235 -4.02352,-11.69023 -3.06108,-15.31431l-6.37725,-0.91886l-4.08144,11.94516z"/>
   <polygon stroke="null" id="svg_75" fill="#575a88" points="328.2083435058594,403.997314453125 336.11639404296875,405.835205078125 357.7989501953125,321.91290283203125 366.98223876953125,405.5290222167969 375.4002380371094,405.5290222167969 374.6346740722656,287.3027038574219 341.98333740234375,287.3027038574219 328.2083435058594,403.997314453125 "/>
   <path stroke="null" id="svg_76" fill="#575a88" d="m369.72791,417.5181l12.8686,-5.08267a2.50272,3.00501 0 0 0 1.45646,-4.19843l0,0a2.50273,3.00502 0 0 0 -2.40722,-1.6543l-2.9191,0.23682l-1.14399,-0.77302a0.66544,0.79899 0 0 0 -0.94168,1.00051l1.05498,3.07629l-10.71378,-0.91886l-0.52861,5.0776a2.50955,3.01322 0 0 0 3.27435,3.23605z"/>
   <path stroke="null" id="svg_77" fill="#575a88" d="m326.23364,419.85461l13.98864,1.08904a2.58975,3.10951 0 0 0 2.74881,-3.35491l0,0a2.58974,3.1095 0 0 0 -1.77869,-2.70453l-2.87845,-1.1265l-0.84952,-1.27267a0.68858,0.82677 0 0 0 -1.22586,0.52373l0.02311,3.44245l-9.98937,-5.851l-2.14092,4.62922a2.59681,3.11799 0 0 0 2.10225,4.62518z"/>
   <circle stroke="null" transform="matrix(0.4300650469224146,0,0,0.5163786159601044,-1972.7450047135171,-1700.144838327405) " id="svg_78" fill="#ffb8b8" r="21.94628" cy="3698.7529" cx="5414.89786"/>
   <path stroke="null" id="svg_79" fill="#ffb8b8" d="m349.89114,230.63954l13.00959,0l0,-15.00803l-13.00959,0c1.0751,4.635 0.93611,9.68522 0,15.00803z"/>
   <path stroke="null" id="svg_80" fill="#a12020" d="m340.19772,288.83392l35.7126,0.61257l3.57126,-45.30165a11.78252,14.14726 0 0 0 -7.99346,-13.39577l-5.52631,-2.25354l-3.06108,-4.28801c-3.86478,-1.00281 -8.06977,-0.75972 -12.49941,0.30628l-3.31617,5.81944l-3.57105,1.36843a11.74596,14.10336 0 0 0 -8.17007,13.83165c2.65726,16.4798 4.72352,31.79609 4.85368,43.3006z"/>
   <path stroke="null" id="svg_81" fill="#a12020" d="m320.81088,313.03054l8.92815,1.22514l10.2036,-49.31209l1.02036,-31.85377l-0.30126,0.17505a16.89748,20.28878 0 0 0 -9.22484,14.3776l-10.62602,65.38806z"/>
   <path stroke="null" id="svg_82" fill="#a12020" d="m398.86842,294.65336l6.88743,-3.98172l-20.2016,-45.26125a26.41143,31.71217 0 0 0 -13.47027,-14.46456l0,0l3.82635,28.79091l22.95809,34.91663z"/>
   <path stroke="null" id="svg_83" fill="#2f2e41" d="m350.1798,220.01202s9.25513,-0.65905 9.45548,-2.58119s1.55164,-6.30682 3.15248,-6.06626s6.03741,-6.16715 5.08724,-8.75024s-5.43477,-12.09331 -14.59031,-7.71005s-8.10636,15.37584 -7.15617,17.95893s4.05128,7.14881 4.05128,7.14881z"/>
   <path stroke="null" id="svg_84" fill="#a12020" d="m576.68222,358.91737a0.46091,0.55341 0 0 0 -0.44432,0.40884l-0.74341,3.31538a0.46017,0.55253 0 0 0 0.44432,0.69628l14.13792,0a0.4601,0.55244 0 0 0 0.43474,-0.73334l-0.95576,-3.31538a0.46044,0.55285 0 0 0 -0.43488,-0.37179l-12.43861,0z"/>
   <path stroke="null" id="svg_85" fill="#a12020" d="m556.03909,358.91737a0.46091,0.55341 0 0 0 -0.44432,0.40884l-0.74341,3.31538a0.46017,0.55253 0 0 0 0.44432,0.69628l14.13792,0a0.4601,0.55244 0 0 0 0.43474,-0.73334l-0.95576,-3.31538a0.46044,0.55285 0 0 0 -0.43488,-0.37179l-12.43861,0z"/>
  </g>
  <text stroke="null" transform="matrix(2.0655869429945417,0,0,1.6082298032171538,-566.3766166789818,-314.7666703488336) " xml:space="preserve" text-anchor="start" font-family="'League Gothic', sans-serif" font-size="24" id="svg_88" y="533" x="530.07224" stroke-width="0" fill="#2f2e41">UACM</text>
 </g>
</svg>