<svg width="825" height="200" xmlns="http://www.w3.org/2000/svg">
 <title>online_chat</title>

 <g>
  <title>background</title>
  <rect fill="none" id="canvas_background" height="202" width="827" y="-1" x="-1"/>
 </g>
 <g>
  <title>Layer 1</title>
  <path id="svg_1" fill="#a12020" d="m373.17495,626.08396a4.77664,4.77664 0 0 0 -2.81646,0.99092c-2.40045,-6.34374 -6.11652,-10.42042 -10.29133,-10.42042s-7.89087,4.07668 -10.29132,10.42042a4.77666,4.77666 0 0 0 -2.81646,-0.99092c-4.74294,0 -8.58785,8.02129 -8.58785,17.916l43.39127,0c0,-9.89471 -3.84491,-17.916 -8.58785,-17.916z"/>
  <path id="svg_2" fill="#a12020" d="m266.17495,626.08396a4.77664,4.77664 0 0 0 -2.81646,0.99092c-2.40045,-6.34374 -6.11652,-10.42042 -10.29133,-10.42042s-7.89087,4.07668 -10.29132,10.42042a4.77666,4.77666 0 0 0 -2.81646,-0.99092c-4.74294,0 -8.58785,8.02129 -8.58785,17.916l43.39127,0c0,-9.89471 -3.84491,-17.916 -8.58785,-17.916z"/>
  <path id="svg_3" fill="#a12020" d="m682.17495,626.08396a4.77664,4.77664 0 0 0 -2.81646,0.99092c-2.40045,-6.34374 -6.11652,-10.42042 -10.29133,-10.42042s-7.89087,4.07668 -10.29132,10.42042a4.77666,4.77666 0 0 0 -2.81646,-0.99092c-4.74294,0 -8.58785,8.02129 -8.58785,17.916l43.39127,0c0,-9.89471 -3.84491,-17.916 -8.58785,-17.916z"/>
  <rect id="svg_4" fill="#3f3d56" height="2" width="581" y="642.25842" x="197"/>
  <path id="svg_5" fill="#3f3d56" d="m371.7628,644l-61.39111,0l0,-1c0,-14.31152 5.60254,-25.52246 12.75439,-25.52246a7.1056,7.1056 0 0 1 3.36426,0.87207c3.585,-8.77539 8.85694,-13.77832 14.57666,-13.77832s10.99219,5.00293 14.57715,13.77832a7.10566,7.10566 0 0 1 3.36426,-0.87207c7.15185,0 12.75439,11.21094 12.75439,25.52246l0,1zm-59.38086,-2l57.37061,0c-0.249,-12.30859 -5.06787,-22.52246 -10.74414,-22.52246a5.5581,5.5581 0 0 0 -3.26856,1.166l-1.05908,0.76758l-0.4624,-1.22364c-3.2749,-8.65332 -8.06836,-13.61621 -13.15137,-13.61621s-9.876,4.96289 -13.15088,13.61621l-0.4624,1.22364l-1.05908,-0.76758a5.5581,5.5581 0 0 0 -3.26856,-1.166c-5.67627,0 -10.49511,10.21388 -10.74414,22.52246z"/>
  <path id="svg_6" fill="#3f3d56" d="m729.7628,644l-61.3916,0l0,-1c0,-14.31152 5.60254,-25.52246 12.75488,-25.52246a7.10705,7.10705 0 0 1 3.36426,0.87207c3.585,-8.77539 8.85742,-13.77832 14.57715,-13.77832c5.71875,0 10.99121,5.00293 14.57617,13.77832a7.10711,7.10711 0 0 1 3.36426,-0.87207c7.15234,0 12.75488,11.21094 12.75488,25.52246l0,1zm-59.38183,-2l57.37207,0c-0.249,-12.30859 -5.06836,-22.52246 -10.74512,-22.52246a5.55536,5.55536 0 0 0 -3.26758,1.166l-1.05957,0.76758l-0.46289,-1.22364c-3.27441,-8.65332 -8.06836,-13.61621 -13.15039,-13.61621c-5.083,0 -9.877,4.96289 -13.15137,13.61621l-0.46289,1.22364l-1.05957,-0.76758a5.55536,5.55536 0 0 0 -3.26758,-1.166c-5.67675,0 -10.49609,10.21388 -10.74511,22.52246z"/>
  <path id="svg_7" fill="#3f3d56" d="m272.7628,644l-61.39111,0l0,-1c0,-14.31152 5.60254,-25.52246 12.75439,-25.52246a7.1056,7.1056 0 0 1 3.36426,0.87207c3.585,-8.77539 8.85694,-13.77832 14.57666,-13.77832s10.99219,5.00293 14.57715,13.77832a7.10566,7.10566 0 0 1 3.36426,-0.87207c7.15185,0 12.75439,11.21094 12.75439,25.52246l0,1zm-59.38086,-2l57.37061,0c-0.249,-12.30859 -5.06787,-22.52246 -10.74414,-22.52246a5.5581,5.5581 0 0 0 -3.26856,1.166l-1.05908,0.76758l-0.4624,-1.22364c-3.2749,-8.65332 -8.06836,-13.61621 -13.15137,-13.61621s-9.876,4.96289 -13.15088,13.61621l-0.4624,1.22364l-1.05908,-0.76758a5.5581,5.5581 0 0 0 -3.26856,-1.166c-5.67627,0 -10.49511,10.21388 -10.74414,22.52246z"/>
  <polygon id="svg_15" fill="#ffb8b8" points="582.342 581.607 583.65 602.214 604.584 598.616 603.275 578.664 582.342 581.607"/>
  <polygon id="svg_16" fill="#ffb8b8" points="489.123 593.074 485.198 606.157 508.421 610.409 511.692 598.307 489.123 593.074"/>
  <path id="svg_18" fill="#2f2e41" d="m579.39819,394.84227l14.71878,99.43359s7.85,38.26885 8.50419,52.98763s3.27084,33.68967 3.27084,33.68967l-26.49381,4.2521l-26.16674,-128.217l26.16674,-62.14599z"/>
  <path id="svg_19" fill="#2f2e41" d="m608.50868,588.14901l-20.93339,1.30834s-7.79336,-8.83127 -7.33106,-4.25209s-4.444,23.87714 -4.444,23.87714l-16.35421,17.00838s-32.38133,0 -27.47507,15.7s43.17511,2.61667 43.17511,2.61667l14.71879,-4.90626l0,6.54168s25.18548,3.59793 25.83965,-2.94376s0,-14.71878 -0.98125,-15.373s-6.21457,-39.5771 -6.21457,-39.5771z"/>
  <path id="svg_20" fill="#2f2e41" d="m511.7628,604.29433s-14.96312,-1.197 -17.058,-2.99263s-5.38672,-9.27713 -9.87566,-4.48893s-20.64911,20.34984 -20.64911,20.34984l-15.56165,7.48156s-20.34984,-5.38672 -27.23288,7.1823s33.81666,25.73657 44.29084,21.5469l13.16755,-2.69336l-0.59852,6.28451s18.55427,4.18967 21.24763,-1.197s4.7882,-11.67124 3.59115,-13.46681s8.67865,-38.00638 8.67865,-38.00638z"/>
  <circle id="svg_26" fill="#d0cde1" r="12" cy="498.39835" cx="779.2372"/>
  <circle id="svg_27" fill="#a12020" r="20" cy="537.39835" cx="749.2372"/>
  <rect id="svg_28" fill="#3f3d56" height="93" width="2" y="549.39835" x="753.63857"/>
  <path id="svg_29" fill="#3f3d56" d="m755.23721,551.39835a21,21 0 1 1 21,-21a21.0239,21.0239 0 0 1 -21,21zm0,-40a19,19 0 1 0 19,19a19.02162,19.02162 0 0 0 -19,-19z"/>
  <path id="svg_30" fill="#3f3d56" d="m772.23721,515.39835a13,13 0 1 1 13,-13a13.01474,13.01474 0 0 1 -13,13zm0,-24a11,11 0 1 0 11,11a11.01245,11.01245 0 0 0 -11,-11z"/>
  <g id="svg_48">
   <ellipse id="svg_8" fill="#3f3d56" transform="rotate(-57.65599822998047 -34.00337219238276,543.8076171875) " ry="1.70152" rx="0.63807" cy="947.36547" cx="667.77142"/>
   <path id="svg_9" fill="#a12020" d="m681.04393,162.18663l0,0a1.59304,1.59304 0 0 1 4.10871,-0.92262l37.73506,23.89567a1.59304,1.59304 0 0 1 0.92262,4.10871l0,0a0,0 0 0 1 0,0l-42.76639,-27.08175a0,0 0 0 1 0,0z"/>
   <path id="svg_10" fill="#3f3d56" transform="rotate(-57.65599822998047 -33.034439086914055,564.8278198242188) " d="m686.19361,950.36593l2.219,0a2.03479,2.03479 0 0 1 2.03479,2.03479l0,50.85456a2.40992,2.40992 0 0 1 -2.40992,2.40992l-1.84387,0a0,0 0 0 1 0,0l0,-55.29927a0,0 0 0 1 0,0z"/>
   <rect id="svg_11" fill="#d0cde1" transform="rotate(-57.65599822998047 -31.852035522460895,545.5838012695312) " height="3.40303" width="0.85076" y="946.37385" x="672.18658"/>
   <rect id="svg_12" fill="#d0cde1" transform="rotate(-57.65599822998047 -32.128768920898466,550.0877075195312) " height="3.40303" width="0.85076" y="953.38112" x="675.86305"/>
   <circle id="svg_13" fill="#ffb8b8" r="26.8209" cy="52.84585" cx="744.77313"/>
   <path id="svg_14" fill="#ffb8b8" d="m746.40861,71.81674s13.08336,20.6063 9.81252,26.49382s-13.41052,21.91464 -13.41052,21.91464s45.13762,-33.36259 39.2501,-40.55844c0,0 -13.41045,-11.44795 -14.06462,-18.6438l-21.58748,10.79378z"/>
   <path id="svg_17" fill="#2f2e41" d="m769.46799,188.09516l2.126,14.55525s26.8209,53.31472 -2.28959,79.48145l-39.2501,96.81691s-4.2521,50.371 -16.68129,68.03351l-11.4479,40.23135l-34.01675,-8.83127l27.47507,-87.33147s-0.32709,-36.63343 3.59792,-44.81053l17.33546,-77.846l3.1073,-83.24292s45.79179,-3.27088 50.04388,2.94372z"/>
   <path id="svg_21" fill="#575a89" d="m807.24621,113.02934l-23.17067,51.2639l-10.06111,22.2548l-3.72873,8.25235l-53.96889,-0.65417l5.56043,-37.61468c-7.85,-20.27922 10.79378,-28.45632 10.79378,-28.45632l15.7,-16.73037l0,2.66575s15.373,-18.31672 22.24173,-28.78341s16.3542,-6.54168 16.3542,-6.54168c16.35425,-1.63542 20.27926,34.34383 20.27926,34.34383z"/>
   <path id="svg_22" opacity="0.2" d="m784.07554,164.29324l-10.06111,22.2548c-3.23155,-6.04451 -5.69123,-12.89038 -5.69123,-16.93313c0,-11.12087 11.12086,-5.23335 11.12086,-5.23335s-8.99482,-49.22617 -8.99482,-63.945c0,-9.77651 8.15091,33.61122 13.6263,63.85668z"/>
   <path id="svg_23" fill="#ffb8b8" d="m775.19196,167.97948l-48.73554,-0.98125s-35.65217,2.94376 -30.41883,17.33546s33.68967,0 33.68967,0l56.91265,8.83128l-11.44795,-25.18549z"/>
   <path id="svg_24" fill="#575a89" d="m784.35032,81.30218s-17.00838,1.30834 -17.00838,16.02712s15.373,67.05226 15.373,67.05226s-11.12086,-5.88752 -11.12086,5.23335s18.6438,43.50219 20.6063,21.91463c0,0 28.12924,13.73754 26.49382,-12.10211s-19.298,-80.46271 -19.298,-80.46271s-1.96251,-18.64379 -15.04588,-17.66254z"/>
   <path id="svg_25" fill="#2f2e41" d="m745.66531,49.92851c-1.87824,-1.81766 -1.84356,-4.8833 -3.35726,-7.01412c-2.377,-3.34605 -7.326,-3.12175 -11.38955,-2.54409a31.39133,31.39133 0 0 0 -7.94828,1.84681a7.83178,7.83178 0 0 0 -4.5979,5.26529c-0.31828,1.31813 -1.02006,-2.42183 -1.73417,-7.26566a23.59277,23.59277 0 0 1 12.91308,-24.61973q0.07992,-0.03924 0.15848,-0.07742c4.59624,-2.23357 9.41131,-4.20613 14.49137,-4.76043s10.50081,0.4493 14.4851,3.64926c1.821,1.46252 3.30222,3.34007 5.25451,4.62207c3.43017,2.25247 7.77388,2.36155 11.84993,2.83641a32.9335,32.9335 0 0 1 13.20977,4.05246a17.85034,17.85034 0 0 1 8.383,10.66178c1.29061,5.25753 -0.81571,11.47254 -5.98476,13.754a6.22935,6.22935 0 0 0 -2.33634,1.71434c-4.24461,5.18888 2.60771,8.028 3.60145,12.54457c0.8292,3.76877 -2.795,7.181 -6.51177,8.21871a15.531,15.531 0 0 1 -17.82585,-8.5167c-1.27483,-2.95648 -1.56512,-6.22694 -1.912,-9.42783c-0.397,-3.664 -10.00713,-10.30037 -3.51937,-5.30845a9.05931,9.05931 0 0 1 2.87779,3.63976c1.97354,4.72457 -2.12254,7.40633 -4.31947,10.77951a11.99933,11.99933 0 0 0 -0.06782,12.688a13.834,13.834 0 0 1 -6.35881,-16.46434c0.58915,-1.60309 1.48213,-3.08506 2.01748,-4.7069c0.83537,-2.53073 0.09709,-7.44874 -3.63814,-6.45167c-2.66602,0.71163 -4.94445,3.5902 -7.74047,0.88437z"/>
   <rect id="svg_46" fill="#3f3d56" height="2" width="107" y="182.25842" x="567"/>
  </g>
  <path id="svg_31" fill="#a12020" d="m580.95128,175.21094l-35.97119,-35.21094l-163.21729,0l0,-101l214,0l0,101l-15.15819,0l0.34667,35.21094zm-197.18848,-37.21094l162.03321,0l33.10839,32.40821l-0.31933,-32.40821l15.17773,0l0,-97l-210,0l0,97z"/>
  <path id="svg_38" fill="#a12020" d="m538.7628,115a22,22 0 1 1 22,-22a22.02489,22.02489 0 0 1 -22,22zm0,-42a20,20 0 1 0 20,20a20.02292,20.02292 0 0 0 -20,-20z"/>
  <path id="svg_32" fill="#a12020" d="m93.57335,155.21042l0.34717,-35.21045l-15.15772,0l0,-101l214,0l0,101l-163.21728,0l-35.97217,35.21045zm-12.81055,-37.21045l15.17725,0l-0.31885,32.40772l33.1084,-32.40772l162.0332,0l0,-97l-210,0l0,97z"/>
  <rect id="svg_33" fill="#a12020" height="2" width="128" y="51" x="117.7628"/>
  <rect id="svg_43" fill="#a12020" height="2" width="128" y="66.25842" x="118"/>
  <rect id="svg_44" fill="#a12020" height="2" width="128" y="80.25842" x="118"/>
  <rect x="41" id="svg_45" fill="#3f3d56" height="2" width="107" y="154.25842"/>
  <g stroke="null" id="svg_54">
   <rect stroke="null" id="svg_51" fill="#a12020" height="1.74407" width="74.09989" y="77" x="417.76279"/>
   <rect stroke="null" id="svg_52" fill="#a12020" height="1.74407" width="74.09989" y="90.30587" x="417.90011"/>
   <rect stroke="null" id="svg_53" fill="#a12020" height="1.74407" width="74.09989" y="102.51435" x="417.90011"/>
  </g>
 </g>
</svg>