<svg width="820" height="164" xmlns="http://www.w3.org/2000/svg">

 <g>
  <title>background</title>
  <rect fill="none" id="canvas_background" height="166" width="822" y="-1" x="-1"/>
 </g>
 <g>
  <title>Layer 1</title>
  <rect id="svg_8" fill="#2f2e41" transform="rotate(-82.47679901123047 1123.0814208984373,1709.6889648437498) " height="11.60959" width="2.15531" y="1703.88417" x="1122.00378"/>
  <path stroke="null" id="svg_13" fill="#b2b2b2" d="m66.44252,8.66693l201.55221,0a25.80432,19.1214 0 0 1 25.77525,19.09991l0,81.70802a25.8043,19.12138 0 0 1 -25.77525,19.09988l-201.55221,0a25.8043,19.12138 0 0 1 -25.77525,-19.09988l0,-81.70802a25.80432,19.1214 0 0 1 25.77525,-19.09991z"/>
  <path stroke="null" id="svg_14" fill="#f7f7f7" d="m66.44225,14.16538l201.55247,0a18.3758,13.61675 0 0 1 18.3552,13.60145l0,81.70802a18.3758,13.61675 0 0 1 -18.3552,13.60143l-201.55247,0a18.37574,13.6167 0 0 1 -18.35492,-13.60143l0,-81.70802a18.37574,13.6167 0 0 1 18.35492,-13.60145z"/>
  <path stroke="null" id="svg_15" fill="#b2b2b2" d="m68.40899,157.82898a4.62214,3.42508 0 0 1 -1.77113,-0.26549a4.48171,3.32101 0 0 1 -2.81028,-3.11652l0,-28.24593l50.81811,-1.26699l-43.04657,31.89827a4.48968,3.32692 0 0 1 -3.19013,0.99666z"/>
  <rect stroke="null" id="svg_16" fill="#b2b2b2" rx="20.51374" height="16.28301" width="173.53104" y="34.48914" x="80.20755"/>
  <rect stroke="null" id="svg_17" fill="#b2b2b2" rx="20.51374" height="16.28301" width="173.53104" y="60.47933" x="80.4531"/>
  <rect stroke="null" id="svg_18" fill="#b2b2b2" rx="20.51374" height="16.28301" width="173.53104" y="86.46952" x="80.69866"/>
  <g stroke="null" id="svg_26">
   <path stroke="null" id="svg_1" fill="#a12020" d="m685.74561,74.89089a4.25391,2.51144 0 0 1 -4.23827,-2.34723l-0.63126,-5.69036a4.25389,2.51143 0 0 1 3.96666,-2.6702l75.51263,-2.9196a9.08344,5.36272 0 1 1 1.18706,10.70251l-75.5124,2.91942q-0.14262,0.00538 -0.28442,0.00547z"/>
   <path stroke="null" id="svg_2" fill="#2f2e41" d="m700.63556,75.62456a4.25927,2.5146 0 0 1 -4.24898,-2.41778l-0.53811,-8.49922a4.25347,2.51118 0 0 1 4.09208,-2.60323l62.09605,-1.37019a4.254,2.51149 0 0 1 4.40971,2.4159l0.53811,8.49922a4.25347,2.51118 0 0 1 -4.09208,2.60323l-62.09605,1.37019c-0.05369,0.00132 -0.10753,0.00189 -0.16074,0.00189z"/>
   <path stroke="null" id="svg_3" fill="#2f2e41" d="m773.40216,153.97146l-9.65919,0a4.25859,2.5142 0 0 1 -4.25377,-2.51136l0,-47.52807a4.25859,2.5142 0 0 1 4.25377,-2.51136l9.65919,0a4.25859,2.5142 0 0 1 4.25377,2.51136l0,47.52807a4.25859,2.5142 0 0 1 -4.25377,2.51136z"/>
   <path stroke="null" id="svg_4" fill="#2f2e41" d="m750.32881,153.97146l-9.65919,0a4.25859,2.5142 0 0 1 -4.25377,-2.51136l0,-47.52807a4.25859,2.5142 0 0 1 4.25377,-2.51136l9.65919,0a4.25859,2.5142 0 0 1 4.25377,2.51136l0,47.52807a4.25859,2.5142 0 0 1 -4.25377,2.51136z"/>
   <circle stroke="null" id="svg_5" fill="#a12020" r="19.70449" cy="32.11548" cx="758.73193"/>
   <path stroke="null" id="svg_9" fill="#2f2e41" d="m780.49537,116.68389l-50.17527,0a5.57248,3.2899 0 0 1 -5.40068,-2.49581a5.46353,3.22558 0 0 1 -0.07318,-1.19014s9.80091,-32.49343 14.64927,-48.09888a16.74336,9.885 0 0 1 16.47194,-8.10138l0.00005,0a36.19592,21.36947 0 0 1 36.19592,21.36947l0,31.62811a11.66803,6.88861 0 0 1 -11.66805,6.88862z"/>
   <path stroke="null" id="svg_10" fill="#a12020" d="m770.81974,112.39044a4.2606,2.51539 0 0 1 -3.9863,1.38921l-9.65057,-0.24008a4.25339,2.51113 0 0 1 -4.07079,-2.61484l3.18489,-44.63723a9.08307,5.36249 0 1 1 18.15005,0.45138l-3.18454,44.63723a4.23015,2.49741 0 0 1 -0.44275,1.01433z"/>
   <path stroke="null" id="svg_11" fill="#2f2e41" d="m775.75944,100.55497a4.26037,2.51525 0 0 1 -3.98623,1.38913l-16.48372,-0.40998a4.25861,2.51421 0 0 1 -4.07079,-2.61484l2.61535,-36.65356a4.25343,2.51115 0 0 1 4.42897,-2.40346l16.48344,0.4099a4.25343,2.51115 0 0 1 4.07079,2.61484l-2.61507,36.65366a4.2353,2.50045 0 0 1 -0.44275,1.01431z"/>
  </g>
  <g stroke="null" id="svg_31">
   <path stroke="null" id="svg_19" fill="#999999" d="m650.00478,45.00601l-160.14315,0a20.5028,14.16462 0 0 0 -20.47971,14.1487l0,60.52712a20.50278,14.16461 0 0 0 20.47971,14.14868l160.14315,0a20.50278,14.16461 0 0 0 20.47971,-14.14868l0,-60.52712a20.5028,14.16462 0 0 0 -20.47971,-14.1487z"/>
   <path stroke="#f4f4f4" id="svg_20" fill="#f7f7f7" d="m650.00499,49.07912l-160.14336,0a14.60048,10.08693 0 0 0 -14.5841,10.07559l0,60.52712a14.60047,10.08692 0 0 0 14.5841,10.07558l160.14336,0a14.60043,10.08689 0 0 0 14.58389,-10.07558l0,-60.52712a14.60043,10.08689 0 0 0 -14.58389,-10.07559z"/>
   <path stroke="null" id="svg_21" fill="#999999" d="m637.82211,154.76299l-34.20262,-23.62939l40.3775,0.93855l0,20.92383a3.56094,2.46012 0 0 1 -2.2329,2.30863a3.67255,2.53723 0 0 1 -1.40725,0.19667a3.56727,2.4645 0 0 1 -2.53472,-0.7383z"/>
   <circle stroke="null" id="svg_22" fill="#a12020" r="5.23" cy="89.41827" cx="534.61237"/>
   <circle stroke="null" id="svg_23" fill="#a12020" r="5.23" cy="89.41827" cx="569.93321"/>
   <circle stroke="null" id="svg_24" fill="#a12020" r="5.23" cy="89.41827" cx="605.25405"/>
  </g>
 </g>
</svg>